{"glyphs":{"0":{"ha":1010,"x_min":126,"x_max":884,"o":"m 505 884 q 652 849 583 884 q 772 753 721 814 q 854 612 824 693 q 884 441 884 532 q 854 272 884 352 q 773 131 824 191 q 653 35 722 71 q 505 0 584 0 q 358 35 427 0 q 237 130 289 70 q 156 270 186 190 q 126 441 126 351 q 156 613 126 532 q 237 754 186 694 q 358 849 289 814 q 505 884 427 884 m 505 758 q 406 732 452 758 q 326 664 360 707 q 272 564 292 621 q 252 441 252 506 q 272 320 252 377 q 326 219 292 262 q 406 151 360 176 q 505 126 452 126 q 603 152 557 126 q 684 220 650 177 q 738 320 718 263 q 758 441 758 378 q 738 563 758 506 q 684 664 718 621 q 603 732 650 707 q 505 758 557 758 z "},"1":{"ha":619,"x_min":126,"x_max":505,"o":"m 379 0 l 379 732 l 126 555 l 126 708 l 378 884 l 505 884 l 505 0 l 379 0 z "},"2":{"ha":1010,"x_min":126,"x_max":884,"o":"m 884 0 l 126 0 l 126 125 l 669 425 q 733 487 709 450 q 758 569 758 524 q 737 642 758 608 q 682 702 717 677 q 602 743 648 728 q 505 758 556 758 q 408 743 454 758 q 327 702 362 728 q 272 642 292 676 q 252 569 252 607 l 126 569 q 156 690 126 633 q 237 791 186 748 q 358 859 289 834 q 505 884 427 884 q 651 859 582 884 q 772 791 720 834 q 853 691 823 749 q 884 569 884 633 q 844 427 884 493 q 733 317 804 361 l 386 125 l 884 125 l 884 0 z "},"3":{"ha":1010,"x_min":126,"x_max":884,"o":"m 252 253 q 273 205 252 228 q 330 165 294 182 q 410 137 365 147 q 505 126 456 126 q 598 136 553 126 q 679 164 644 146 q 736 204 714 182 q 758 253 758 227 q 736 301 758 278 q 679 341 714 323 q 598 369 644 359 q 505 379 553 379 l 441 379 l 441 505 l 505 505 q 597 515 552 505 q 679 543 643 526 q 736 583 714 559 q 758 631 758 606 q 736 679 758 656 q 681 720 715 702 q 600 747 646 737 q 505 758 555 758 q 410 747 456 758 q 329 720 364 737 q 273 679 294 702 q 252 631 252 656 l 126 631 q 156 730 126 684 q 237 811 186 777 q 358 865 289 845 q 505 884 427 884 q 652 865 583 884 q 772 811 721 845 q 854 731 824 777 q 884 631 884 685 q 761 444 884 517 q 758 441 760 444 q 884 253 884 368 q 853 153 884 199 q 772 73 823 106 q 652 19 721 39 q 505 0 583 0 q 358 20 427 0 q 237 73 289 39 q 156 154 186 107 q 126 253 126 200 l 252 253 z "},"4":{"ha":1010,"x_min":126,"x_max":884,"o":"m 758 441 l 758 253 l 884 253 l 884 126 l 758 126 l 758 0 l 631 0 l 631 126 l 126 126 l 126 250 l 602 884 l 759 884 l 285 253 l 631 253 l 631 441 l 758 441 z "},"5":{"ha":1010,"x_min":118,"x_max":884,"o":"m 219 233 q 275 184 241 204 q 350 151 310 163 q 432 132 391 138 q 505 126 473 126 q 671 171 585 126 q 758 316 758 216 q 671 460 758 414 q 505 505 585 505 q 444 501 478 505 q 374 489 409 497 q 308 467 339 480 q 254 435 276 454 l 126 435 l 126 884 l 884 884 l 884 758 l 252 758 l 252 582 q 309 603 277 594 q 376 619 342 612 q 444 628 410 625 q 505 631 478 631 q 762 551 637 631 q 884 316 884 473 q 762 79 884 157 q 505 0 637 0 q 402 9 456 0 q 294 38 347 19 q 195 87 241 57 q 118 157 149 117 l 219 233 z "},"6":{"ha":1010,"x_min":127,"x_max":884,"o":"m 127 473 q 158 635 127 559 q 241 766 189 710 q 361 853 293 821 q 505 884 430 884 q 632 876 576 884 q 733 847 688 867 q 815 795 779 827 q 884 720 852 764 l 781 647 q 733 700 758 678 q 677 734 709 721 q 604 752 646 747 q 505 758 562 758 q 412 737 456 758 q 334 682 368 717 q 279 598 300 646 q 254 495 258 550 q 311 525 279 511 q 376 548 342 538 q 443 563 410 557 q 505 569 477 569 q 664 549 594 569 q 783 491 734 528 q 858 401 832 454 q 884 284 884 349 q 853 172 884 224 q 772 82 823 121 q 652 22 721 44 q 505 0 583 0 q 384 19 441 0 q 281 71 327 39 q 203 144 235 102 q 159 231 172 186 q 127 473 127 340 m 286 248 q 326 197 302 219 q 377 159 349 175 q 437 134 405 142 q 505 126 470 126 q 600 138 555 126 q 681 172 646 151 q 736 222 715 193 q 758 284 758 252 q 693 401 758 360 q 505 441 629 441 q 417 430 460 441 q 341 399 374 418 q 287 356 307 380 q 267 308 267 332 q 286 248 267 279 z "},"7":{"ha":1010,"x_min":126,"x_max":884,"o":"m 126 631 l 126 884 l 884 884 l 884 753 l 402 0 l 252 0 l 737 758 l 252 758 l 252 631 l 126 631 z "},"8":{"ha":1010,"x_min":126,"x_max":884,"o":"m 734 484 q 846 388 809 438 q 884 269 884 338 q 854 163 884 212 q 773 78 824 115 q 653 21 722 41 q 505 0 584 0 q 357 21 426 0 q 237 78 288 41 q 156 163 186 115 q 126 269 126 212 q 163 389 126 337 q 277 484 201 440 q 190 647 190 550 q 214 740 190 696 q 282 815 239 783 q 382 866 325 848 q 505 884 439 884 q 628 866 570 884 q 728 815 686 848 q 796 740 771 783 q 821 647 821 696 q 734 484 821 550 m 648 718 q 505 758 590 758 q 433 748 468 758 q 373 724 399 739 q 331 689 347 709 q 316 647 316 669 q 332 605 316 625 q 374 570 348 585 q 434 546 400 555 q 505 536 469 536 q 575 545 541 536 q 635 569 609 554 q 679 605 662 585 q 695 647 695 625 q 648 718 695 686 m 694 361 q 505 410 617 410 q 408 399 454 410 q 328 368 362 387 q 273 322 293 348 q 252 269 252 297 q 273 213 252 239 q 330 168 294 187 q 411 137 365 149 q 505 126 456 126 q 598 137 553 126 q 679 167 644 148 q 736 213 714 186 q 758 269 758 239 q 694 361 758 319 z "},"9":{"ha":1010,"x_min":127,"x_max":884,"o":"m 884 412 q 854 251 884 326 q 771 120 823 176 q 650 32 719 64 q 507 0 582 0 q 379 9 435 0 q 277 38 323 18 q 195 89 231 57 q 127 165 158 120 l 231 237 q 277 184 252 205 q 335 150 302 163 q 409 132 368 137 q 507 126 451 126 q 596 145 553 126 q 674 199 640 165 q 730 282 708 234 q 758 389 753 330 q 699 358 730 372 q 634 335 667 345 q 568 321 601 326 q 507 316 536 316 q 348 336 418 316 q 229 393 277 357 q 154 483 180 430 q 127 600 127 535 q 157 710 127 658 q 238 800 186 762 q 358 862 289 839 q 507 884 428 884 q 628 865 570 884 q 731 812 685 845 q 808 739 777 780 q 852 653 840 697 q 884 412 884 539 m 726 636 q 688 685 711 663 q 637 723 665 707 q 576 748 609 739 q 507 758 543 758 q 409 745 455 758 q 329 711 363 732 q 274 661 294 689 q 254 600 254 632 q 271 531 254 561 q 321 481 289 501 q 401 451 354 461 q 507 441 448 441 q 583 451 541 441 q 661 479 625 461 q 721 522 696 497 q 745 576 745 546 q 726 636 745 603 z "}," ":{"ha":722,"x_min":0,"x_max":0,"o":""},"a":{"ha":1010,"x_min":126,"x_max":884,"o":"m 316 0 q 242 15 277 0 q 182 56 208 30 q 141 116 156 81 q 126 190 126 151 q 141 262 126 228 q 182 323 156 297 q 242 364 208 349 q 316 379 277 379 l 569 379 q 631 441 631 379 q 569 505 631 505 l 316 505 q 252 441 252 505 l 126 441 q 141 515 126 480 q 182 575 156 549 q 242 616 208 601 q 316 631 277 631 l 569 631 q 642 616 607 631 q 702 575 676 601 q 743 515 728 549 q 758 441 758 480 l 758 190 q 821 126 758 126 l 884 126 l 884 0 l 821 0 q 695 49 748 0 q 569 0 640 0 l 316 0 m 631 263 q 569 253 604 253 l 316 253 q 252 190 252 253 q 316 126 252 126 l 569 126 q 631 190 631 126 l 631 263 z "},"o":{"ha":1010,"x_min":126,"x_max":884,"o":"m 505 631 q 652 606 583 631 q 772 538 721 581 q 853 438 823 496 q 884 316 884 380 q 853 193 884 251 q 772 93 823 136 q 652 25 721 50 q 505 0 583 0 q 359 25 428 0 q 238 93 290 50 q 156 193 186 136 q 126 316 126 250 q 156 439 126 382 q 238 539 186 496 q 359 607 290 582 q 505 631 428 631 m 505 505 q 408 490 454 505 q 328 450 362 475 q 273 390 293 425 q 252 316 252 355 q 273 241 252 276 q 328 181 293 207 q 408 141 362 156 q 505 126 454 126 q 602 141 556 126 q 682 182 648 156 q 737 242 717 208 q 758 316 758 277 q 737 389 758 355 q 682 450 717 424 q 602 490 648 475 q 505 505 556 505 z "},"b":{"ha":1010,"x_min":126,"x_max":884,"o":"m 505 631 q 652 606 583 631 q 772 538 721 581 q 853 438 823 496 q 884 316 884 380 q 747 92 884 185 q 505 0 610 0 q 414 2 452 0 q 348 10 376 5 q 297 23 319 16 q 252 42 275 31 l 252 0 l 126 0 l 126 884 l 252 884 l 252 589 q 305 606 272 598 q 375 620 338 614 q 447 628 412 625 q 505 631 481 631 m 252 441 l 252 191 q 505 126 328 126 q 587 141 543 126 q 669 181 631 155 q 732 241 707 207 q 758 316 758 276 q 732 390 758 355 q 669 450 707 425 q 587 491 631 476 q 505 505 543 505 q 252 441 328 505 z "},"þ":{"ha":1010,"x_min":126,"x_max":884,"o":"m 505 631 q 652 606 583 631 q 772 538 721 581 q 853 438 823 496 q 884 316 884 380 q 747 92 884 185 q 505 0 610 0 q 414 2 452 0 q 348 10 376 5 q 297 23 319 16 q 252 42 275 31 l 252 -252 l 126 -252 l 126 884 l 252 884 l 252 589 q 305 606 272 598 q 375 620 338 614 q 447 628 412 625 q 505 631 481 631 m 252 441 l 252 191 q 505 126 328 126 q 587 141 543 126 q 669 181 631 155 q 732 241 707 207 q 758 316 758 276 q 732 390 758 355 q 669 450 707 425 q 587 491 631 476 q 505 505 543 505 q 252 441 328 505 z "},"p":{"ha":1010,"x_min":126,"x_max":884,"o":"m 505 631 q 652 606 583 631 q 772 538 721 581 q 853 438 823 496 q 884 316 884 380 q 747 92 884 185 q 505 0 610 0 q 414 2 452 0 q 348 10 376 5 q 297 23 319 16 q 252 42 275 31 l 252 -252 l 126 -252 l 126 631 l 252 631 l 252 589 q 305 606 272 598 q 375 620 338 614 q 447 628 412 625 q 505 631 481 631 m 252 441 l 252 191 q 505 126 328 126 q 587 141 543 126 q 669 181 631 155 q 732 241 707 207 q 758 316 758 276 q 732 390 758 355 q 669 450 707 425 q 587 491 631 476 q 505 505 543 505 q 252 441 328 505 z "},"q":{"ha":1010,"x_min":126,"x_max":884,"o":"m 505 631 q 564 628 529 631 q 636 620 600 625 q 705 606 672 614 q 758 589 738 598 l 758 631 l 884 631 l 884 -252 l 758 -252 l 758 42 q 712 23 734 31 q 662 10 690 16 q 596 2 633 5 q 505 0 559 0 q 263 92 400 0 q 126 316 126 185 q 156 439 126 382 q 238 539 186 496 q 359 607 290 582 q 505 631 428 631 m 758 441 q 505 505 682 505 q 422 491 467 505 q 340 450 378 476 q 277 390 302 425 q 252 316 252 355 q 277 241 252 276 q 340 181 302 207 q 422 141 378 155 q 505 126 467 126 q 758 191 682 126 l 758 441 z "},"d":{"ha":1010,"x_min":126,"x_max":884,"o":"m 505 631 q 564 628 529 631 q 636 620 600 625 q 705 606 672 614 q 758 589 738 598 l 758 884 l 884 884 l 884 -1 l 758 -1 l 758 42 q 712 23 734 31 q 662 10 690 16 q 596 2 633 5 q 505 0 559 0 q 263 92 400 0 q 126 316 126 185 q 156 439 126 382 q 238 539 186 496 q 359 607 290 582 q 505 631 428 631 m 758 441 q 505 505 682 505 q 422 491 467 505 q 340 450 378 476 q 277 390 302 425 q 252 316 252 355 q 277 241 252 276 q 340 181 302 207 q 422 141 378 155 q 505 126 467 126 q 758 191 682 126 l 758 441 z "},"h":{"ha":1010,"x_min":126,"x_max":884,"o":"m 505 631 q 652 606 583 631 q 772 538 721 581 q 853 438 823 496 q 884 316 884 380 l 884 0 l 758 0 l 758 316 q 732 390 758 355 q 669 450 707 425 q 587 491 631 476 q 505 505 543 505 q 252 441 328 505 l 252 -1 l 126 -1 l 126 884 l 252 884 l 252 589 q 305 606 272 598 q 375 620 338 614 q 447 628 412 625 q 505 631 481 631 z "},"n":{"ha":1010,"x_min":126,"x_max":884,"o":"m 505 631 q 652 606 583 631 q 772 538 721 581 q 853 438 823 496 q 884 316 884 380 l 884 0 l 758 0 l 758 316 q 732 390 758 355 q 669 450 707 425 q 587 491 631 476 q 505 505 543 505 q 252 441 328 505 l 252 -1 l 126 -1 l 126 631 l 252 631 l 252 589 q 305 606 272 598 q 375 620 338 614 q 447 628 412 625 q 505 631 481 631 z "},"g":{"ha":1010,"x_min":126,"x_max":884,"o":"m 126 316 q 145 413 126 369 q 195 491 163 456 q 270 551 227 526 q 361 594 313 577 q 460 619 409 611 q 559 627 511 627 q 758 589 676 627 l 758 631 l 884 631 l 884 64 q 766 -159 884 -66 q 505 -252 646 -252 q 270 -213 363 -252 q 126 -111 177 -174 l 231 -40 q 275 -75 247 -59 q 340 -102 304 -91 q 419 -119 377 -113 q 505 -125 461 -125 q 667 -64 593 -125 q 754 41 741 -4 q 562 1 672 1 q 460 10 511 1 q 360 36 408 19 q 269 80 311 54 q 195 141 227 106 q 144 219 163 176 q 126 316 126 263 m 252 316 q 278 228 252 264 q 344 170 304 193 q 435 137 385 147 q 535 127 486 127 q 664 144 606 127 q 758 191 722 161 l 758 441 q 717 467 741 455 q 664 486 692 478 q 602 498 635 494 q 535 502 569 502 q 433 491 484 502 q 342 458 382 481 q 277 400 302 435 q 252 316 252 365 z "},"e":{"ha":1010,"x_min":126,"x_max":884,"o":"m 505 631 q 652 606 583 631 q 772 538 721 581 q 853 438 823 496 q 884 316 884 380 l 884 253 l 267 253 q 303 202 279 226 q 358 162 327 178 q 426 136 389 145 q 505 126 464 126 q 707 202 632 126 l 819 140 q 686 38 768 75 q 505 0 604 0 q 359 25 428 0 q 238 93 290 50 q 156 193 186 136 q 126 316 126 250 q 156 439 126 382 q 238 539 186 496 q 359 607 290 582 q 505 631 428 631 m 743 379 q 707 430 730 406 q 652 470 683 453 q 583 496 621 486 q 505 505 546 505 q 427 496 465 505 q 358 470 389 486 q 303 430 327 453 q 267 379 279 406 l 743 379 z "},"c":{"ha":945,"x_min":126,"x_max":819,"o":"m 505 631 q 600 622 555 631 q 686 593 646 612 q 760 549 726 575 q 819 492 793 524 l 707 429 q 505 505 632 505 q 408 490 454 505 q 328 450 362 475 q 273 390 293 425 q 252 316 252 355 q 273 241 252 276 q 328 181 293 207 q 408 141 362 156 q 505 126 454 126 q 707 202 632 126 l 819 140 q 686 38 768 75 q 505 0 604 0 q 359 25 428 0 q 238 93 290 50 q 156 193 186 136 q 126 316 126 250 q 156 439 126 382 q 238 539 186 496 q 359 607 290 582 q 505 631 428 631 z "},"m":{"ha":1516,"x_min":126,"x_max":1390,"o":"m 465 631 q 762 505 667 631 q 1057 631 862 631 q 1297 546 1205 631 q 1390 316 1390 460 l 1390 0 l 1263 0 l 1263 316 q 1208 450 1263 394 q 1057 505 1153 505 q 885 456 949 505 q 821 316 821 407 l 821 0 l 695 0 l 695 316 q 635 456 695 407 q 465 505 575 505 q 252 441 328 505 l 252 0 l 126 0 l 126 631 l 252 631 l 252 590 q 465 631 340 631 z "},"r":{"ha":696,"x_min":126,"x_max":569,"o":"m 126 631 l 252 631 l 252 569 q 441 631 317 630 q 569 613 504 631 l 526 494 q 441 505 483 505 q 252 271 252 504 l 252 0 l 126 0 l 126 631 z "},"u":{"ha":1010,"x_min":126,"x_max":884,"o":"m 505 -1 q 359 24 428 -1 q 238 92 290 49 q 156 192 186 135 q 126 315 126 249 l 126 631 l 252 631 l 252 315 q 277 240 252 275 q 340 180 302 206 q 422 140 378 155 q 505 125 467 125 q 758 190 682 125 l 758 631 l 884 631 l 884 -1 l 758 -1 l 758 41 q 705 24 738 32 q 635 11 672 16 q 563 2 598 5 q 505 -1 528 -1 z "},"i":{"ha":378,"x_min":126,"x_max":252,"o":"m 126 631 l 252 631 l 252 0 l 126 0 l 126 631 m 126 884 l 252 884 l 252 758 l 126 758 l 126 884 z "},"j":{"ha":378,"x_min":0,"x_max":252,"o":"m 0 -125 l 62 -125 q 126 -62 126 -125 l 126 631 l 252 631 l 252 -62 q 237 -136 252 -102 q 196 -197 222 -171 q 136 -237 170 -222 q 62 -252 101 -252 l 0 -252 l 0 -125 m 126 884 l 252 884 l 252 758 l 126 758 l 126 884 z "},"l":{"ha":378,"x_min":126,"x_max":316,"o":"m 316 122 l 316 -4 q 242 11 277 -4 q 182 51 208 26 q 141 111 156 77 q 126 185 126 146 l 126 880 l 252 880 l 252 185 q 316 122 252 122 z "},"f":{"ha":696,"x_min":126,"x_max":569,"o":"m 505 758 q 468 753 490 758 q 426 740 446 748 q 393 720 406 731 q 379 695 379 708 l 379 631 l 569 631 l 569 505 l 379 505 l 379 5 l 252 5 l 252 505 l 126 505 l 126 631 l 252 631 l 253 700 q 273 771 253 738 q 329 830 294 805 q 409 870 363 855 q 505 884 454 884 q 536 883 521 884 q 569 878 552 881 l 569 749 q 556 754 560 752 q 547 756 552 755 q 533 757 542 757 q 505 758 524 758 z "},"t":{"ha":694,"x_min":126,"x_max":569,"o":"m 475 131 q 525 138 502 130 q 569 170 547 146 l 569 41 q 475 5 537 12 q 343 35 394 5 q 273 108 293 65 q 253 190 254 151 l 252 505 l 126 505 l 126 631 l 252 631 l 252 821 l 379 821 l 379 631 l 569 631 l 569 505 l 379 505 l 379 194 q 391 167 379 180 q 420 142 403 153 q 475 131 437 131 z "},"k":{"ha":1010,"x_min":126,"x_max":884,"o":"m 126 0 l 126 884 l 252 884 l 252 342 l 665 631 l 884 631 l 593 427 l 884 0 l 731 0 l 490 354 l 252 187 l 252 0 l 126 0 z "},"z":{"ha":1010,"x_min":126,"x_max":884,"o":"m 126 631 l 884 631 l 884 505 l 345 126 l 884 126 l 884 0 l 126 0 l 126 126 l 665 505 l 126 505 l 126 631 z "},"x":{"ha":1010,"x_min":126,"x_max":884,"o":"m 298 0 l 126 0 l 419 316 l 126 631 l 298 631 l 505 409 l 712 631 l 884 631 l 591 316 l 884 0 l 712 0 l 505 223 l 298 0 z "},"w":{"ha":1514,"x_min":125,"x_max":1388,"o":"m 262 631 l 473 155 l 684 631 l 829 631 l 1040 155 l 1251 631 l 1388 631 l 1109 0 l 971 0 l 757 486 l 542 0 l 404 0 l 125 631 l 262 631 z "},"y":{"ha":1010,"x_min":126,"x_max":884,"o":"m 267 631 l 505 143 l 743 631 l 884 631 l 522 -111 q 294 -252 453 -252 l 190 -252 l 190 -125 l 294 -125 q 408 -55 374 -125 l 435 0 l 126 631 l 267 631 z "},"v":{"ha":1010,"x_min":126,"x_max":884,"o":"m 267 631 l 505 143 l 743 631 l 884 631 l 576 0 l 435 0 l 126 631 l 267 631 z "},"s":{"ha":1010,"x_min":126,"x_max":884,"o":"m 505 631 q 884 569 712 631 l 837 459 q 505 505 692 505 q 448 504 484 505 q 357 500 411 502 q 252 435 252 496 q 316 379 252 379 l 695 379 q 768 365 733 379 q 828 326 802 350 q 869 268 854 301 q 884 198 884 235 q 746 26 884 52 q 505 0 608 0 q 126 62 298 0 l 174 173 q 505 126 317 126 q 562 127 526 126 q 652 130 598 127 q 758 197 758 133 q 695 253 758 253 l 316 253 q 242 267 277 253 q 182 306 208 281 q 141 363 156 330 q 126 434 126 396 q 263 606 126 580 q 505 631 400 631 z "},"¨":{"ha":1010,"x_min":252,"x_max":757,"o":"m 252 884 l 378 884 l 378 758 l 252 758 l 252 884 m 631 884 l 757 884 l 757 758 l 631 758 l 631 884 z "},"ÿ":{"ha":1010,"x_min":126,"x_max":884,"o":"m 267 631 l 505 143 l 743 631 l 884 631 l 522 -111 q 294 -252 453 -252 l 190 -252 l 190 -125 l 294 -125 q 408 -55 374 -125 l 435 0 l 126 631 l 267 631 m 252 884 l 378 884 l 378 758 l 252 758 l 252 884 m 631 884 l 757 884 l 757 758 l 631 758 l 631 884 z "},"ö":{"ha":1010,"x_min":126,"x_max":884,"o":"m 505 631 q 652 606 583 631 q 772 538 721 581 q 853 438 823 496 q 884 316 884 380 q 853 193 884 251 q 772 93 823 136 q 652 25 721 50 q 505 0 583 0 q 359 25 428 0 q 238 93 290 50 q 156 193 186 136 q 126 316 126 250 q 156 439 126 382 q 238 539 186 496 q 359 607 290 582 q 505 631 428 631 m 505 505 q 408 490 454 505 q 328 450 362 475 q 273 390 293 425 q 252 316 252 355 q 273 241 252 276 q 328 181 293 207 q 408 141 362 156 q 505 126 454 126 q 602 141 556 126 q 682 182 648 156 q 737 242 717 208 q 758 316 758 277 q 737 389 758 355 q 682 450 717 424 q 602 490 648 475 q 505 505 556 505 m 252 884 l 378 884 l 378 758 l 252 758 l 252 884 m 631 884 l 757 884 l 757 758 l 631 758 l 631 884 z "},"ë":{"ha":1010,"x_min":126,"x_max":884,"o":"m 505 631 q 652 606 583 631 q 772 538 721 581 q 853 438 823 496 q 884 316 884 380 l 884 253 l 267 253 q 303 202 279 226 q 358 162 327 178 q 426 136 389 145 q 505 126 464 126 q 707 202 632 126 l 819 140 q 686 38 768 75 q 505 0 604 0 q 359 25 428 0 q 238 93 290 50 q 156 193 186 136 q 126 316 126 250 q 156 439 126 382 q 238 539 186 496 q 359 607 290 582 q 505 631 428 631 m 743 379 q 707 430 730 406 q 652 470 683 453 q 583 496 621 486 q 505 505 546 505 q 427 496 465 505 q 358 470 389 486 q 303 430 327 453 q 267 379 279 406 l 743 379 m 252 884 l 378 884 l 378 758 l 252 758 l 252 884 m 631 884 l 757 884 l 757 758 l 631 758 l 631 884 z "},"ä":{"ha":1010,"x_min":126,"x_max":884,"o":"m 316 0 q 242 15 277 0 q 182 56 208 30 q 141 116 156 81 q 126 190 126 151 q 141 262 126 228 q 182 323 156 297 q 242 364 208 349 q 316 379 277 379 l 569 379 q 631 441 631 379 q 569 505 631 505 l 316 505 q 252 441 252 505 l 126 441 q 141 515 126 480 q 182 575 156 549 q 242 616 208 601 q 316 631 277 631 l 569 631 q 642 616 607 631 q 702 575 676 601 q 743 515 728 549 q 758 441 758 480 l 758 190 q 821 126 758 126 l 884 126 l 884 0 l 821 0 q 695 49 748 0 q 569 0 640 0 l 316 0 m 631 263 q 569 253 604 253 l 316 253 q 252 190 252 253 q 316 126 252 126 l 569 126 q 631 190 631 126 l 631 263 m 252 884 l 378 884 l 378 758 l 252 758 l 252 884 m 631 884 l 757 884 l 757 758 l 631 758 l 631 884 z "},"ü":{"ha":1010,"x_min":126,"x_max":884,"o":"m 505 -1 q 359 24 428 -1 q 238 92 290 49 q 156 192 186 135 q 126 315 126 249 l 126 631 l 252 631 l 252 315 q 277 240 252 275 q 340 180 302 206 q 422 140 378 155 q 505 125 467 125 q 758 190 682 125 l 758 631 l 884 631 l 884 -1 l 758 -1 l 758 41 q 705 24 738 32 q 635 11 672 16 q 563 2 598 5 q 505 -1 528 -1 m 252 884 l 378 884 l 378 758 l 252 758 l 252 884 m 631 884 l 757 884 l 757 758 l 631 758 l 631 884 z "},"A":{"ha":1270,"x_min":126,"x_max":1137,"o":"m 631 742 l 422 316 l 840 316 l 631 742 m 360 190 l 267 0 l 126 0 l 562 884 l 702 884 l 1137 0 l 996 0 l 903 190 l 360 190 z "},"I":{"ha":378,"x_min":126,"x_max":252,"o":"m 126 0 l 126 884 l 252 884 l 252 0 l 126 0 z "},"P":{"ha":1137,"x_min":126,"x_max":1010,"o":"m 126 884 l 758 884 q 855 864 809 884 q 936 809 901 844 q 990 729 970 774 q 1010 631 1010 683 q 990 533 1010 580 q 936 453 970 487 q 855 399 901 419 q 758 379 809 379 l 252 379 l 252 0 l 126 0 l 126 884 m 758 505 q 806 515 783 505 q 846 543 829 526 q 873 583 863 559 q 884 631 884 606 q 873 680 884 657 q 846 720 863 703 q 806 747 829 737 q 758 758 783 758 l 252 758 l 252 505 l 758 505 z "},"B":{"ha":1137,"x_min":126,"x_max":1010,"o":"m 126 884 l 758 884 q 855 864 809 884 q 936 809 901 844 q 990 729 970 774 q 1010 631 1010 683 q 924 441 1010 519 q 1010 253 1010 365 q 990 155 1010 201 q 936 75 970 109 q 856 20 902 40 q 758 0 809 0 l 126 0 l 126 884 m 758 379 l 252 379 l 252 126 l 758 126 q 806 136 783 126 q 846 164 829 146 q 873 204 863 181 q 884 253 884 227 q 873 301 884 279 q 846 341 863 324 q 806 369 829 359 q 758 379 783 379 m 252 758 l 252 505 l 758 505 q 806 515 783 505 q 846 543 829 526 q 873 583 863 559 q 884 631 884 606 q 873 680 884 657 q 846 720 863 703 q 806 747 829 737 q 758 758 783 758 l 252 758 z "},"E":{"ha":1137,"x_min":126,"x_max":1010,"o":"m 126 884 l 1010 884 l 1010 758 l 252 758 l 252 505 l 884 505 l 884 379 l 252 379 l 252 126 l 1010 126 l 1010 0 l 126 0 l 126 884 z "},"F":{"ha":1137,"x_min":126,"x_max":1010,"o":"m 126 884 l 1010 884 l 1010 758 l 252 758 l 252 505 l 884 505 l 884 379 l 252 379 l 252 0 l 126 0 l 126 884 z "},"R":{"ha":1137,"x_min":126,"x_max":1010,"o":"m 126 884 l 758 884 q 855 864 809 884 q 936 809 901 844 q 990 729 970 774 q 1010 631 1010 683 q 990 533 1010 580 q 936 453 970 487 q 855 399 901 419 q 758 379 809 379 l 727 379 l 1010 0 l 852 0 l 569 379 l 252 379 l 252 0 l 126 0 l 126 884 m 252 758 l 252 505 l 758 505 q 806 515 783 505 q 846 543 829 526 q 873 583 863 559 q 884 631 884 606 q 873 680 884 657 q 846 720 863 703 q 806 747 829 737 q 758 758 783 758 l 252 758 z "},"O":{"ha":1137,"x_min":126,"x_max":1010,"o":"m 569 884 q 880 754 751 884 q 1010 441 1010 625 q 880 130 1010 258 q 569 0 749 0 q 256 130 385 0 q 126 441 126 257 q 256 754 126 625 q 569 884 385 884 m 569 758 q 446 732 504 758 q 346 665 389 707 q 277 564 302 622 q 252 441 252 507 q 277 319 252 377 q 346 219 302 262 q 446 151 389 176 q 569 126 504 126 q 690 151 633 126 q 791 219 748 176 q 859 320 833 262 q 884 441 884 377 q 859 564 884 506 q 791 664 833 621 q 690 732 748 707 q 569 758 633 758 z "},"Q":{"ha":1137,"x_min":126,"x_max":1074,"o":"m 569 884 q 880 754 751 884 q 1010 441 1010 625 q 945 210 1010 317 l 1074 142 l 1074 0 l 861 111 q 569 0 736 0 q 256 130 385 0 q 126 441 126 257 q 256 754 126 625 q 569 884 385 884 m 833 269 q 884 441 884 348 q 859 564 884 506 q 791 664 833 621 q 690 732 748 707 q 569 758 633 758 q 446 732 504 758 q 346 665 389 707 q 277 564 302 622 q 252 441 252 507 q 277 319 252 377 q 346 219 302 262 q 446 151 389 176 q 569 126 504 126 q 738 176 659 126 l 631 232 l 631 374 l 833 269 z "},"D":{"ha":1137,"x_min":126,"x_max":1010,"o":"m 126 884 l 569 884 q 880 754 751 884 q 1010 441 1010 625 q 880 130 1010 258 q 569 0 751 0 l 126 0 l 126 884 m 569 126 q 690 151 633 126 q 791 219 748 176 q 859 320 833 262 q 884 441 884 377 q 859 564 884 506 q 791 664 833 621 q 690 732 748 707 q 569 758 633 758 l 252 758 l 252 126 l 569 126 z "},"C":{"ha":1137,"x_min":126,"x_max":1010,"o":"m 600 884 q 725 868 665 884 q 837 823 785 852 q 934 754 890 794 q 1009 665 978 713 l 898 604 q 843 667 875 638 q 773 715 812 695 q 691 747 734 736 q 600 758 647 758 q 465 732 528 758 q 355 665 402 707 q 280 564 307 622 q 252 441 252 507 q 280 319 252 377 q 355 219 307 262 q 465 151 402 176 q 600 126 528 126 q 692 137 648 126 q 774 169 736 149 q 844 218 812 190 q 899 281 876 247 l 1010 221 q 936 131 979 172 q 840 61 892 90 q 726 16 787 32 q 600 0 665 0 q 264 130 404 0 q 126 441 126 258 q 264 754 126 623 q 600 884 402 884 z "},"G":{"ha":1137,"x_min":126,"x_max":1010,"o":"m 569 884 q 881 755 751 884 l 791 666 q 569 758 700 758 q 446 732 504 758 q 346 665 389 707 q 277 564 302 622 q 252 441 252 507 q 277 319 252 377 q 346 219 302 262 q 446 151 389 176 q 569 126 504 126 q 677 146 626 126 q 769 199 728 165 q 838 280 810 233 q 878 379 867 326 l 505 379 l 505 505 l 1010 505 l 1010 441 q 880 130 1010 258 q 569 0 749 0 q 256 130 385 0 q 126 441 126 257 q 256 754 126 625 q 569 884 385 884 z "},"H":{"ha":1137,"x_min":126,"x_max":1010,"o":"m 884 884 l 1010 884 l 1010 0 l 884 0 l 884 379 l 252 379 l 252 0 l 126 0 l 126 884 l 252 884 l 252 505 l 884 505 l 884 884 z "},"N":{"ha":1137,"x_min":126,"x_max":1010,"o":"m 884 884 l 1010 884 l 1010 0 l 884 0 l 252 696 l 252 0 l 126 0 l 126 884 l 252 884 l 884 188 l 884 884 z "},"T":{"ha":1137,"x_min":126,"x_max":1010,"o":"m 126 884 l 1010 884 l 1010 758 l 631 758 l 631 0 l 505 0 l 505 758 l 126 758 l 126 884 z "},"U":{"ha":1137,"x_min":126,"x_max":1010,"o":"m 1010 441 q 880 130 1010 258 q 569 0 749 0 q 256 130 385 0 q 126 441 126 258 l 126 884 l 252 884 l 252 441 q 277 319 252 377 q 346 219 302 262 q 446 151 389 176 q 569 126 504 126 q 690 151 633 126 q 791 219 748 176 q 859 320 833 262 q 884 441 884 377 l 884 884 l 1010 884 l 1010 441 z "},"L":{"ha":1137,"x_min":126,"x_max":1010,"o":"m 126 884 l 252 884 l 252 126 l 1010 126 l 1010 0 l 126 0 l 126 884 z "},"Z":{"ha":1137,"x_min":126,"x_max":1010,"o":"m 126 0 l 126 126 l 823 758 l 126 758 l 126 884 l 1010 884 l 1010 758 l 313 126 l 1010 126 l 1010 0 l 126 0 z "},"K":{"ha":1137,"x_min":126,"x_max":1010,"o":"m 126 884 l 252 884 l 252 416 l 813 884 l 1010 884 l 565 512 l 1010 0 l 843 0 l 468 431 l 252 252 l 252 0 l 126 0 l 126 884 z "},"M":{"ha":1389,"x_min":126,"x_max":1263,"o":"m 126 884 l 276 884 l 695 235 l 1113 884 l 1263 884 l 1263 0 l 1137 0 l 1137 688 l 776 126 l 613 126 l 252 688 l 252 0 l 126 0 l 126 884 z "},"J":{"ha":884,"x_min":125,"x_max":758,"o":"m 758 316 q 730 193 758 251 q 654 93 702 136 q 544 25 607 50 q 410 0 481 0 q 125 136 228 0 l 233 203 q 410 126 298 126 q 495 141 455 126 q 566 182 536 156 q 614 242 596 208 q 631 316 631 277 l 631 884 l 758 884 l 758 316 z "},"S":{"ha":1137,"x_min":126,"x_max":1010,"o":"m 126 631 q 148 727 126 686 q 206 795 170 767 q 289 841 242 823 q 385 868 335 858 q 482 881 434 878 q 569 884 530 884 q 802 853 688 884 q 1010 758 916 821 l 901 680 q 745 738 829 718 q 569 758 661 758 q 517 757 549 758 q 450 752 485 756 q 380 741 415 749 q 316 720 345 734 q 270 684 288 706 q 252 631 252 662 q 370 522 252 534 q 495 511 430 515 q 631 502 560 506 q 767 485 703 498 q 892 450 832 471 q 1010 254 1010 406 q 987 157 1010 197 q 929 89 965 117 q 847 43 893 60 q 752 16 802 26 q 655 3 703 6 q 569 0 608 0 q 326 33 439 0 q 126 126 212 66 l 236 204 q 393 145 307 165 q 569 126 479 126 q 619 126 588 126 q 685 131 650 127 q 755 142 720 134 q 819 164 791 150 q 866 200 848 178 q 884 254 884 222 q 766 362 884 350 q 641 373 706 368 q 505 382 576 378 q 244 434 363 390 q 126 631 126 477 z "},"V":{"ha":1137,"x_min":126,"x_max":1010,"o":"m 264 884 l 569 173 l 873 884 l 1010 884 l 631 0 l 505 0 l 126 884 l 264 884 z "},"W":{"ha":1634,"x_min":126,"x_max":1508,"o":"m 260 884 l 505 199 l 749 884 l 884 884 l 1129 199 l 1374 884 l 1508 884 l 1192 0 l 1065 0 l 817 696 l 569 0 l 441 0 l 126 884 l 260 884 z "},"X":{"ha":1137,"x_min":126,"x_max":1010,"o":"m 126 884 l 289 884 l 569 542 l 848 884 l 1010 884 l 650 441 l 1010 0 l 848 0 l 569 342 l 288 0 l 126 0 l 487 441 l 126 884 z "},"Y":{"ha":1137,"x_min":126,"x_max":1010,"o":"m 631 344 l 631 0 l 505 0 l 505 344 l 126 884 l 281 884 l 569 473 l 855 884 l 1010 884 l 631 344 z "},"Ä":{"ha":1270,"x_min":126,"x_max":1137,"o":"m 631 742 l 422 316 l 840 316 l 631 742 m 360 190 l 267 0 l 126 0 l 562 884 l 702 884 l 1137 0 l 996 0 l 903 190 l 360 190 m 389 1095 l 515 1095 l 515 968 l 389 968 l 389 1095 m 768 1095 l 894 1095 l 894 968 l 768 968 l 768 1095 z "},"Ö":{"ha":1137,"x_min":126,"x_max":1010,"o":"m 569 884 q 880 754 751 884 q 1010 441 1010 625 q 880 130 1010 258 q 569 0 749 0 q 256 130 385 0 q 126 441 126 257 q 256 754 126 625 q 569 884 385 884 m 569 758 q 446 732 504 758 q 346 665 389 707 q 277 564 302 622 q 252 441 252 507 q 277 319 252 377 q 346 219 302 262 q 446 151 389 176 q 569 126 504 126 q 690 151 633 126 q 791 219 748 176 q 859 320 833 262 q 884 441 884 377 q 859 564 884 506 q 791 664 833 621 q 690 732 748 707 q 569 758 633 758 m 316 1095 l 442 1095 l 442 968 l 316 968 l 316 1095 m 694 1095 l 821 1095 l 821 968 l 694 968 l 694 1095 z "},"Ü":{"ha":1137,"x_min":126,"x_max":1010,"o":"m 1010 441 q 880 130 1010 258 q 569 0 749 0 q 256 130 385 0 q 126 441 126 258 l 126 884 l 252 884 l 252 441 q 277 319 252 377 q 346 219 302 262 q 446 151 389 176 q 569 126 504 126 q 690 151 633 126 q 791 219 748 176 q 859 320 833 262 q 884 441 884 377 l 884 884 l 1010 884 l 1010 441 m 316 1071 l 442 1071 l 442 944 l 316 944 l 316 1071 m 694 1071 l 821 1071 l 821 944 l 694 944 l 694 1071 z "},"Ë":{"ha":1137,"x_min":126,"x_max":1010,"o":"m 126 884 l 1010 884 l 1010 758 l 252 758 l 252 505 l 884 505 l 884 379 l 252 379 l 252 126 l 1010 126 l 1010 0 l 126 0 l 126 884 m 316 1150 l 442 1150 l 442 1023 l 316 1023 l 316 1150 m 694 1150 l 821 1150 l 821 1023 l 694 1023 l 694 1150 z "},":":{"ha":378,"x_min":126,"x_max":252,"o":"m 126 126 l 252 126 l 252 0 l 126 0 l 126 126 m 126 631 l 252 631 l 252 505 l 126 505 l 126 631 z "},";":{"ha":378,"x_min":126,"x_max":252,"o":"m 126 126 l 252 126 l 252 0 l 126 -125 l 126 126 m 126 631 l 252 631 l 252 505 l 126 505 l 126 631 z "},"!":{"ha":378,"x_min":126,"x_max":252,"o":"m 126 126 l 252 126 l 252 0 l 126 0 l 126 126 m 126 884 l 252 884 l 252 505 l 205 190 l 174 190 l 126 505 l 126 884 z "},"\"":{"ha":630,"x_min":130,"x_max":501,"o":"m 379 884 l 501 884 l 501 762 l 379 631 l 379 884 m 130 884 l 252 884 l 252 762 l 130 631 l 130 884 z "},"-":{"ha":762,"x_min":126,"x_max":631,"o":"m 126 253 l 126 379 l 631 379 l 631 253 l 126 253 z "},"+":{"ha":755,"x_min":126,"x_max":631,"o":"m 126 379 l 316 379 l 316 569 l 441 569 l 441 379 l 631 379 l 631 253 l 441 253 l 441 64 l 316 64 l 316 253 l 126 253 l 126 379 z "},")":{"ha":611,"x_min":126,"x_max":500,"o":"m 126 884 l 190 884 q 320 781 262 838 q 418 659 378 723 q 479 525 458 595 q 500 385 500 456 q 481 244 500 315 q 422 108 461 174 q 325 -17 383 42 q 190 -125 267 -77 l 126 -125 q 235 -20 188 -79 q 314 103 283 39 q 361 237 345 168 q 378 377 378 307 q 361 518 378 448 q 314 654 345 588 q 235 779 283 720 q 126 884 188 838 z "},"(":{"ha":579,"x_min":126,"x_max":500,"o":"m 500 884 q 389 777 436 836 q 311 651 342 718 q 264 514 279 585 q 249 372 249 444 q 266 233 250 302 q 313 101 282 165 q 391 -21 345 37 q 500 -125 438 -79 l 437 -125 q 300 -18 359 -77 q 203 107 242 41 q 145 244 165 174 q 126 385 126 315 q 147 526 126 456 q 208 660 168 595 q 306 781 248 724 q 437 884 363 838 l 500 884 z "},"/":{"ha":607,"x_min":126,"x_max":500,"o":"m 374 884 l 500 884 l 252 -125 l 126 -125 l 374 884 z "},"\\":{"ha":575,"x_min":126,"x_max":500,"o":"m 252 884 l 500 -125 l 374 -125 l 126 884 l 252 884 z "},"[":{"ha":378,"x_min":126,"x_max":316,"o":"m 126 884 l 316 884 l 316 758 l 252 758 l 252 0 l 316 0 l 316 -125 l 126 -125 l 126 884 z "},"]":{"ha":378,"x_min":62,"x_max":252,"o":"m 252 884 l 252 -125 l 62 -125 l 62 0 l 126 0 l 126 758 l 62 758 l 62 884 l 252 884 z "},"}":{"ha":561,"x_min":79,"x_max":458,"o":"m 79 884 q 244 814 196 884 q 285 742 268 780 q 315 663 302 703 q 339 585 328 623 q 363 511 351 546 q 398 460 374 476 q 458 444 422 444 l 458 315 q 363 246 386 315 q 340 174 351 212 q 315 95 329 135 q 285 16 302 55 q 244 -56 268 -22 q 180 -109 220 -92 q 79 -125 140 -126 l 79 -62 q 140 -44 115 -62 q 181 0 165 -27 q 209 62 198 27 q 229 134 220 97 q 245 210 237 172 q 265 281 254 248 q 293 341 277 315 q 332 379 309 367 q 292 417 308 391 q 264 476 276 443 q 245 548 253 509 q 228 623 237 586 q 209 696 219 661 q 182 759 198 731 q 141 803 165 786 q 80 819 116 819 l 79 884 z "},"{":{"ha":506,"x_min":62,"x_max":441,"o":"m 441 884 l 441 819 q 340 760 370 819 q 313 695 324 730 q 292 623 301 660 q 273 548 282 585 q 256 475 264 510 q 190 379 237 403 q 229 341 213 367 q 255 281 244 315 q 275 210 267 248 q 292 134 283 172 q 310 62 299 97 q 338 0 321 27 q 380 -44 355 -27 q 441 -62 406 -62 l 441 -125 q 275 -56 323 -125 q 235 16 252 -22 q 204 95 218 55 q 179 174 191 135 q 157 246 168 212 q 62 315 132 315 l 62 444 q 121 460 98 444 q 157 511 144 476 q 179 584 168 545 q 204 663 191 623 q 235 742 218 703 q 275 814 252 781 q 441 884 322 884 z "},"@":{"ha":1104,"x_min":126,"x_max":1010,"o":"m 541 695 q 636 671 591 695 l 636 695 l 763 695 l 763 379 q 763 357 763 368 q 765 337 762 347 q 773 322 767 328 q 795 316 780 316 q 859 352 835 316 q 884 460 882 388 q 857 584 884 529 q 786 677 830 638 q 687 737 743 716 q 572 758 631 758 q 448 732 506 758 q 347 665 390 707 q 279 564 304 622 q 254 441 254 507 q 279 319 254 376 q 347 219 304 262 q 449 151 391 176 q 572 126 507 126 q 671 142 623 126 q 759 186 719 157 l 833 85 q 709 21 777 42 q 572 0 641 0 q 257 130 387 0 q 126 441 126 258 q 257 755 126 625 q 572 884 386 884 q 682 870 627 884 q 785 830 736 857 q 874 766 833 804 q 946 682 916 728 q 993 578 976 635 q 1010 460 1010 522 q 994 348 1010 397 q 949 262 978 298 q 882 209 921 227 q 794 190 842 190 q 675 241 716 190 q 541 190 614 190 q 454 210 494 190 q 383 264 413 229 q 335 344 353 298 q 317 441 317 390 q 335 539 317 494 q 382 620 352 585 q 453 675 412 654 q 541 695 494 695 m 604 536 q 541 569 576 569 q 503 559 520 569 q 473 531 486 549 q 452 491 460 513 q 445 441 445 468 q 452 394 445 417 q 473 354 460 372 q 503 326 486 336 q 541 316 520 316 q 578 327 560 316 q 608 355 595 337 q 629 395 621 372 q 636 441 636 418 q 604 536 636 496 z "},"#":{"ha":753,"x_min":126,"x_max":632,"o":"m 428 695 l 396 569 l 456 569 l 489 695 l 619 695 l 587 569 l 631 569 l 631 443 l 555 443 l 524 316 l 632 316 l 632 190 l 492 190 l 460 64 l 330 64 l 362 191 l 302 191 l 269 64 l 140 64 l 172 192 l 126 192 l 126 318 l 203 318 l 234 444 l 126 444 l 126 570 l 267 570 l 298 695 l 428 695 m 365 443 l 333 317 l 394 317 l 425 443 l 365 443 z "},"^":{"ha":652,"x_min":126,"x_max":545,"o":"m 126 505 l 277 884 l 395 884 l 545 505 l 410 505 l 335 694 l 261 505 l 126 505 z "},">":{"ha":753,"x_min":126,"x_max":631,"o":"m 126 680 l 631 494 l 631 375 l 126 190 l 126 323 l 426 435 l 126 545 l 126 680 z "},"?":{"ha":867,"x_min":126,"x_max":758,"o":"m 126 631 q 146 729 126 683 q 200 809 166 774 q 280 864 234 844 q 379 884 327 884 l 505 884 q 603 864 557 884 q 684 809 650 844 q 738 729 718 774 q 758 631 758 683 q 745 553 758 590 q 710 485 732 516 q 658 431 688 454 q 591 393 627 408 l 591 393 q 528 346 551 378 q 505 273 505 313 l 505 190 l 379 190 l 378 273 q 390 348 378 311 q 424 416 402 385 q 477 472 446 448 q 547 511 508 496 q 608 556 585 525 q 631 631 631 588 q 622 680 631 657 q 594 721 612 703 q 554 748 577 738 q 505 758 531 758 l 379 758 q 330 747 353 758 q 289 720 307 737 q 262 679 272 702 q 252 631 252 656 l 126 631 m 379 126 l 515 126 l 515 0 l 379 0 l 379 126 z "},"Œ":{"ha":1419,"x_min":126,"x_max":1272,"o":"m 1272 885 l 1272 758 l 753 758 l 753 506 l 1145 506 l 1145 380 l 753 380 l 753 127 l 1272 127 l 1272 1 l 568 0 q 256 130 385 0 q 126 443 126 258 q 256 755 126 626 q 568 884 385 884 l 1272 885 m 568 758 q 446 733 503 758 q 346 665 389 708 q 278 564 303 622 q 253 443 253 507 q 278 320 253 378 q 346 220 303 263 q 446 152 389 177 q 568 127 503 127 l 627 127 l 627 758 l 568 758 z "},"<":{"ha":747,"x_min":126,"x_max":631,"o":"m 631 190 l 126 376 l 126 494 l 631 680 l 631 546 l 332 435 l 631 324 l 631 190 z "},",":{"ha":378,"x_min":126,"x_max":252,"o":"m 126 126 l 252 126 l 252 0 l 126 -125 l 126 126 z "},"'":{"ha":378,"x_min":130,"x_max":252,"o":"m 130 884 l 252 884 l 252 762 l 130 631 l 130 884 z "},".":{"ha":378,"x_min":126,"x_max":252,"o":"m 126 126 l 252 126 l 252 0 l 126 0 l 126 126 z "},"·":{"ha":378,"x_min":126,"x_max":252,"o":"m 126 631 l 252 631 l 252 505 l 126 505 l 126 631 z "},"|":{"ha":378,"x_min":126,"x_max":252,"o":"m 126 -136 l 126 884 l 252 884 l 252 -136 l 126 -136 z "},"=":{"ha":762,"x_min":126,"x_max":631,"o":"m 126 132 l 126 258 l 631 258 l 631 132 l 126 132 m 126 380 l 126 506 l 631 506 l 631 380 l 126 380 z "},"$":{"ha":1010,"x_min":126,"x_max":884,"o":"m 438 0 l 438 130 q 126 191 268 138 l 174 301 q 438 256 288 262 l 438 380 l 316 380 q 242 395 277 380 q 182 434 208 409 q 141 491 156 458 q 126 562 126 524 q 263 733 126 707 q 438 757 359 751 l 438 884 l 564 884 l 564 758 q 884 696 738 749 l 837 587 q 564 631 717 625 l 564 507 l 695 507 q 768 492 733 507 q 828 453 802 478 q 869 396 854 429 q 884 326 884 363 q 746 153 884 180 q 650 138 696 144 q 564 130 605 132 l 564 0 l 438 0 m 652 258 q 758 324 758 262 q 695 380 758 380 l 564 380 l 564 254 q 604 256 582 256 q 652 258 626 257 m 357 628 q 252 564 252 625 q 316 507 252 507 l 438 507 l 438 631 q 400 630 420 631 q 357 628 380 630 z "},"_":{"ha":505,"x_min":0,"x_max":506,"o":"m 0 -157 l 506 -157 l 506 -262 l 0 -262 l 0 -157 z "},"ß":{"ha":1104,"x_min":126,"x_max":884,"o":"m 441 569 l 663 569 q 700 576 682 569 q 730 596 718 584 q 750 626 743 609 q 758 663 758 643 q 750 700 758 683 q 730 730 743 717 q 700 750 717 743 q 663 758 682 758 l 316 758 q 290 752 302 758 q 270 738 279 747 q 257 718 262 729 q 252 695 252 707 l 252 0 l 126 0 l 126 695 q 141 768 126 733 q 182 828 156 802 q 242 869 208 854 q 316 884 277 884 l 663 884 q 748 867 708 884 q 819 819 789 849 q 866 749 848 789 q 884 663 884 709 q 819 507 884 571 l 818 505 l 819 504 q 884 347 884 439 l 884 221 q 866 135 884 176 q 819 65 848 95 q 748 18 789 35 q 663 0 708 0 l 441 0 l 441 126 l 663 126 q 699 134 682 126 q 729 154 716 141 q 750 183 742 166 q 758 221 758 201 l 758 347 q 750 385 758 367 q 730 415 743 402 q 700 434 718 427 q 663 441 682 441 l 441 441 l 441 569 z "},"%":{"ha":994,"x_min":126,"x_max":884,"o":"m 876 884 l 287 0 l 135 0 l 724 884 l 876 884 m 695 379 q 768 364 734 379 q 828 323 803 349 q 869 262 854 297 q 884 190 884 228 q 869 116 884 151 q 828 56 854 81 q 768 15 803 30 q 695 0 734 0 q 621 15 656 0 q 561 56 587 30 q 520 116 535 81 q 505 190 505 151 q 520 262 505 228 q 561 323 535 297 q 621 364 587 349 q 695 379 656 379 m 739 234 q 695 253 721 253 q 649 234 667 253 q 631 190 631 214 q 650 144 631 163 q 695 126 668 126 q 739 144 720 126 q 758 190 758 162 q 739 234 758 214 m 316 884 q 389 869 354 884 q 449 828 423 854 q 490 768 475 802 q 505 695 505 733 q 490 621 505 656 q 449 561 475 587 q 389 520 423 535 q 316 505 354 505 q 242 520 277 505 q 182 561 208 535 q 141 621 156 587 q 126 695 126 656 q 141 768 126 733 q 182 828 156 802 q 242 869 208 854 q 316 884 277 884 m 360 739 q 316 758 340 758 q 290 752 302 758 q 270 738 279 747 q 257 718 262 729 q 252 695 252 707 q 257 671 252 683 q 271 651 262 660 q 291 637 279 642 q 316 631 302 631 q 360 650 342 631 q 379 695 379 669 q 360 739 379 721 z "},"&":{"ha":1015,"x_min":126,"x_max":884,"o":"m 880 505 q 751 168 880 313 l 767 150 q 792 131 781 136 q 817 126 804 126 l 884 126 l 884 0 l 817 0 q 739 16 777 0 q 673 67 701 32 l 656 85 q 378 0 531 0 q 280 20 327 0 q 200 75 234 40 q 146 155 166 109 q 126 253 126 201 q 139 336 126 299 q 176 402 153 372 q 229 455 199 431 q 295 499 260 479 l 241 562 q 204 623 218 588 q 190 695 190 657 q 209 768 190 733 q 261 828 228 802 q 341 869 295 854 q 441 884 388 884 q 542 869 496 884 q 622 828 588 854 q 676 768 656 802 q 695 695 695 733 q 679 613 695 648 q 634 551 662 578 q 571 502 606 524 q 496 460 535 479 l 667 264 q 753 505 753 369 l 880 505 m 378 126 q 574 181 484 126 l 380 401 q 331 371 355 387 q 290 337 308 355 q 262 298 273 319 q 252 253 252 277 q 262 203 252 227 q 289 163 272 180 q 329 136 305 146 q 378 126 352 126 m 410 557 q 469 588 440 572 q 519 620 497 603 q 555 655 542 637 q 569 695 569 673 q 558 718 569 707 q 529 738 547 729 q 488 752 511 747 q 441 758 465 758 q 394 752 417 758 q 354 738 372 747 q 326 718 336 729 q 316 695 316 707 q 320 670 316 684 q 335 644 323 657 l 410 557 z "},"*":{"ha":676,"x_min":120,"x_max":511,"o":"m 379 505 l 252 505 l 283 642 l 183 545 l 120 655 l 254 696 l 120 734 l 183 844 l 281 753 l 252 884 l 379 884 l 345 749 l 448 844 l 511 734 l 378 696 l 511 655 l 448 545 l 344 646 l 379 505 z "},"~":{"ha":1104,"x_min":126,"x_max":690,"o":"m 126 686 q 139 762 126 726 q 177 825 153 798 q 237 869 202 852 q 315 887 272 885 q 378 875 350 887 q 429 849 406 863 q 469 823 452 834 q 500 811 486 811 q 528 817 516 811 q 548 834 540 823 q 560 857 556 844 q 564 884 564 870 l 690 884 q 677 811 690 847 q 639 746 663 774 q 578 702 614 718 q 498 685 543 685 q 437 696 465 685 q 387 723 409 708 q 347 749 364 737 q 317 761 329 761 q 298 758 309 761 q 277 747 288 755 q 260 724 267 739 q 252 686 252 710 l 126 686 z "},"ð":{"ha":1015,"x_min":126,"x_max":884,"o":"m 190 789 l 289 789 l 178 884 l 372 884 l 484 789 l 758 789 l 758 663 l 632 663 l 798 522 l 796 519 q 884 316 884 431 q 853 192 884 250 q 772 92 823 135 q 651 25 720 50 q 505 0 582 0 q 359 25 428 0 q 238 93 290 50 q 156 193 186 136 q 126 316 126 250 q 153 430 126 375 q 227 528 180 486 q 337 598 273 571 q 475 631 401 626 l 438 663 l 190 663 l 190 789 m 689 446 q 505 505 616 505 q 407 490 453 505 q 327 449 361 475 q 272 389 292 423 q 252 316 252 354 q 272 243 252 277 q 327 182 292 208 q 408 141 361 157 q 505 126 454 126 q 602 141 556 126 q 682 181 648 156 q 737 241 717 207 q 758 316 758 276 q 689 446 758 390 z "},"˜":{"ha":1104,"x_min":126,"x_max":690,"o":"m 126 686 q 139 762 126 726 q 177 825 153 798 q 237 869 202 852 q 315 887 272 885 q 378 875 350 887 q 429 849 406 863 q 469 823 452 834 q 500 811 486 811 q 528 817 516 811 q 548 834 540 823 q 560 857 556 844 q 564 884 564 870 l 690 884 q 677 811 690 847 q 639 746 663 774 q 578 702 614 718 q 498 685 543 685 q 437 696 465 685 q 387 723 409 708 q 347 749 364 737 q 317 761 329 761 q 298 758 309 761 q 277 747 288 755 q 260 724 267 739 q 252 686 252 710 l 126 686 z "},"ñ":{"ha":1010,"x_min":126,"x_max":884,"o":"m 505 631 q 652 606 583 631 q 772 538 721 581 q 853 438 823 496 q 884 316 884 380 l 884 0 l 758 0 l 758 316 q 732 390 758 355 q 669 450 707 425 q 587 491 631 476 q 505 505 543 505 q 252 441 328 505 l 252 -1 l 126 -1 l 126 631 l 252 631 l 252 589 q 305 606 272 598 q 375 620 338 614 q 447 628 412 625 q 505 631 481 631 m 222 716 q 236 792 222 756 q 274 855 249 828 q 333 899 298 882 q 411 917 368 915 q 474 905 446 917 q 525 879 503 893 q 565 852 548 864 q 596 841 583 841 q 624 847 612 841 q 644 864 636 853 q 656 887 652 874 q 661 914 661 900 l 787 914 q 773 841 787 877 q 735 776 760 804 q 675 731 711 748 q 595 715 639 715 q 533 726 561 715 q 483 752 505 738 q 443 779 460 767 q 413 791 425 791 q 395 788 406 791 q 374 777 384 785 q 356 754 363 768 q 349 716 349 740 l 222 716 z "},"Ñ":{"ha":1137,"x_min":126,"x_max":1010,"o":"m 884 884 l 1010 884 l 1010 0 l 884 0 l 252 696 l 252 0 l 126 0 l 126 884 l 252 884 l 884 188 l 884 884 m 290 956 q 303 1031 290 996 q 341 1095 316 1067 q 400 1138 366 1122 q 478 1156 435 1154 q 542 1144 513 1156 q 592 1118 570 1133 q 632 1092 615 1103 q 663 1080 650 1080 q 691 1086 680 1080 q 711 1103 703 1093 q 724 1126 720 1114 q 728 1154 728 1139 l 854 1154 q 840 1080 854 1116 q 802 1016 827 1044 q 742 971 778 987 q 662 954 706 954 q 600 966 628 954 q 550 992 572 977 q 510 1018 528 1006 q 480 1030 492 1030 q 462 1027 473 1030 q 441 1016 451 1025 q 423 994 431 1008 q 416 956 416 979 l 290 956 z "},"°":{"ha":633,"x_min":126,"x_max":505,"o":"m 316 884 q 389 869 354 884 q 449 828 423 854 q 490 768 475 802 q 505 695 505 733 q 490 621 505 656 q 449 561 475 587 q 389 520 423 535 q 316 505 354 505 q 242 520 277 505 q 182 561 208 535 q 141 621 156 587 q 126 695 126 656 q 141 768 126 733 q 182 828 156 802 q 242 869 208 854 q 316 884 277 884 m 360 739 q 316 758 340 758 q 290 752 302 758 q 270 738 279 747 q 257 718 262 729 q 252 695 252 707 q 257 671 252 683 q 271 651 262 660 q 291 637 279 642 q 316 631 302 631 q 360 650 342 631 q 379 695 379 669 q 360 739 379 721 z "},"¡":{"ha":378,"x_min":126,"x_max":252,"o":"m 252 758 l 126 758 l 126 884 l 252 884 l 252 758 m 252 0 l 126 0 l 126 379 l 173 695 l 204 695 l 252 379 l 252 0 z "},"Ð":{"ha":1137,"x_min":70,"x_max":1010,"o":"m 70 391 l 70 517 l 126 517 l 126 884 l 569 884 q 880 754 751 884 q 1010 441 1010 625 q 880 130 1010 258 q 569 0 751 0 l 126 0 l 126 391 l 70 391 m 569 126 q 690 151 633 126 q 791 219 748 176 q 859 320 833 262 q 884 441 884 377 q 859 564 884 506 q 791 664 833 621 q 690 732 748 707 q 569 758 633 758 l 252 758 l 252 517 l 575 517 l 575 391 l 252 391 l 252 126 l 569 126 z "},"Þ":{"ha":1137,"x_min":126,"x_max":1010,"o":"m 126 0 l 126 884 l 252 884 l 252 693 l 758 693 q 855 673 809 693 q 936 618 901 653 q 990 538 970 584 q 1010 440 1010 492 q 990 342 1010 389 q 936 262 970 296 q 855 208 901 228 q 758 188 809 188 l 252 188 l 252 0 l 126 0 m 758 314 q 806 324 783 314 q 846 351 829 334 q 873 391 863 368 q 884 440 884 414 q 873 489 884 466 q 846 529 863 511 q 806 556 829 546 q 758 566 783 566 l 252 566 l 252 314 l 758 314 z "},"Å":{"ha":1270,"x_min":126,"x_max":1137,"o":"m 631 742 l 422 316 l 840 316 l 631 742 m 360 190 l 267 0 l 126 0 l 562 884 l 702 884 l 1137 0 l 996 0 l 903 190 l 360 190 m 627 1332 q 700 1317 665 1332 q 760 1275 734 1301 q 801 1215 786 1249 q 817 1142 817 1181 q 801 1068 817 1103 q 760 1008 786 1034 q 700 968 734 983 q 627 953 665 953 q 553 968 587 953 q 493 1008 519 983 q 452 1068 467 1034 q 437 1142 437 1103 q 452 1215 437 1181 q 493 1275 467 1249 q 553 1317 519 1301 q 627 1332 587 1332 m 671 1187 q 627 1205 651 1205 q 601 1200 612 1205 q 581 1186 590 1195 q 568 1165 572 1177 q 564 1142 564 1154 q 569 1119 564 1131 q 582 1098 574 1107 q 602 1084 591 1090 q 627 1079 613 1079 q 671 1098 652 1079 q 690 1142 690 1116 q 671 1187 690 1168 z "},"å":{"ha":1010,"x_min":126,"x_max":884,"o":"m 316 0 q 242 15 277 0 q 182 56 208 30 q 141 116 156 81 q 126 190 126 151 q 141 262 126 228 q 182 323 156 297 q 242 364 208 349 q 316 379 277 379 l 569 379 q 631 441 631 379 q 569 505 631 505 l 316 505 q 252 441 252 505 l 126 441 q 141 515 126 480 q 182 575 156 549 q 242 616 208 601 q 316 631 277 631 l 569 631 q 642 616 607 631 q 702 575 676 601 q 743 515 728 549 q 758 441 758 480 l 758 190 q 821 126 758 126 l 884 126 l 884 0 l 821 0 q 695 49 748 0 q 569 0 640 0 l 316 0 m 631 263 q 569 253 604 253 l 316 253 q 252 190 252 253 q 316 126 252 126 l 569 126 q 631 190 631 126 l 631 263 m 439 1084 q 511 1069 477 1084 q 572 1028 546 1054 q 613 967 597 1002 q 628 895 628 933 q 613 821 628 855 q 572 761 597 787 q 511 720 546 734 q 439 705 477 705 q 365 720 399 705 q 304 761 330 734 q 264 821 279 787 q 249 895 249 855 q 264 967 249 933 q 304 1028 279 1002 q 365 1069 330 1054 q 439 1084 399 1084 m 484 939 q 439 958 463 958 q 413 952 425 958 q 393 938 402 947 q 380 918 385 929 q 375 895 375 906 q 380 871 375 883 q 394 851 385 859 q 414 837 403 842 q 439 831 425 831 q 483 850 465 831 q 502 895 502 869 q 484 939 502 920 z "},"æ":{"ha":1492,"x_min":126,"x_max":1383,"o":"m 1004 631 q 1151 606 1082 631 q 1271 538 1219 581 q 1353 438 1322 496 q 1383 316 1383 380 l 1383 253 l 766 253 q 802 202 779 226 q 857 162 825 178 q 925 136 888 145 q 1004 126 963 126 q 1206 202 1131 126 l 1318 140 q 1185 38 1267 75 q 1004 0 1103 0 q 736 92 847 0 q 733 95 734 94 q 732 96 732 95 q 662 24 705 49 q 569 0 618 0 l 316 0 q 242 15 277 0 q 182 56 208 30 q 141 116 156 81 q 126 190 126 151 q 141 262 126 228 q 182 323 156 297 q 242 364 208 349 q 316 379 277 379 l 569 379 q 631 441 631 379 q 569 505 631 505 l 316 505 q 252 441 252 505 l 126 441 q 141 515 126 480 q 182 575 156 549 q 242 616 208 601 q 316 631 277 631 l 569 631 q 662 607 621 631 q 732 536 703 583 l 736 539 q 1004 631 847 631 m 569 253 l 316 253 q 252 190 252 253 q 316 126 252 126 l 569 126 q 631 190 631 126 l 631 254 l 630 262 q 569 253 602 253 m 1242 379 q 1205 430 1229 406 q 1151 470 1182 453 q 1082 496 1120 486 q 1004 505 1045 505 q 926 496 964 505 q 857 470 888 486 q 802 430 825 453 q 766 379 779 406 l 1242 379 z "},"€":{"ha":1137,"x_min":36,"x_max":1010,"o":"m 36 261 l 95 387 l 130 387 q 127 414 127 400 q 126 441 126 428 q 131 509 126 475 l 41 509 l 100 635 l 172 635 q 249 741 203 694 q 351 819 295 787 q 470 867 406 850 q 600 884 534 884 q 725 868 665 884 q 837 823 785 852 q 934 754 890 794 q 1009 665 978 713 l 898 604 q 843 667 875 638 q 773 715 812 695 q 691 747 734 736 q 600 758 647 758 q 447 727 517 758 q 324 635 377 696 l 696 635 l 637 509 l 259 509 q 252 441 252 476 q 257 387 252 414 l 580 387 l 520 261 l 314 261 q 441 159 368 192 q 600 126 513 126 q 692 137 648 126 q 774 169 736 149 q 844 218 812 190 q 899 281 876 247 l 1010 221 q 936 131 979 172 q 840 61 892 90 q 726 16 787 32 q 600 0 665 0 q 466 18 532 0 q 344 69 401 35 q 241 151 287 102 q 166 261 195 200 l 36 261 z "},"œ":{"ha":1656,"x_min":126,"x_max":1515,"o":"m 1137 631 q 1283 606 1214 631 q 1403 538 1352 581 q 1485 438 1455 496 q 1515 316 1515 380 l 1515 253 l 899 253 q 935 202 911 226 q 989 162 958 178 q 1058 136 1020 145 q 1137 126 1095 126 q 1339 202 1263 126 l 1451 140 q 1317 38 1399 75 q 1137 0 1236 0 q 960 35 1042 0 q 820 140 878 69 q 682 35 763 69 q 505 0 600 0 q 359 25 428 0 q 238 93 290 50 q 156 193 186 136 q 126 316 126 250 q 156 439 126 382 q 238 539 186 496 q 359 607 290 582 q 505 631 428 631 q 682 597 600 631 q 820 491 763 562 q 960 597 878 562 q 1137 631 1042 631 m 505 505 q 408 490 454 505 q 328 450 362 475 q 273 390 293 425 q 252 316 252 355 q 273 241 252 276 q 328 181 293 207 q 408 141 362 156 q 505 126 454 126 q 602 141 556 126 q 682 182 648 156 q 737 242 717 208 q 758 316 758 277 q 737 389 758 355 q 682 450 717 424 q 602 490 648 475 q 505 505 556 505 m 1375 379 q 1338 430 1362 406 q 1283 470 1314 453 q 1215 496 1252 486 q 1137 505 1177 505 q 1058 496 1096 505 q 989 470 1021 486 q 935 430 958 453 q 899 379 911 406 l 1375 379 z "},"Æ":{"ha":1638,"x_min":126,"x_max":1521,"o":"m 562 884 l 1521 884 l 1521 758 l 909 758 l 909 505 l 1394 505 l 1394 379 l 909 379 l 909 126 l 1521 126 l 1521 0 l 783 0 l 783 190 l 360 190 l 267 0 l 126 0 l 562 884 m 422 316 l 783 316 l 783 758 l 640 758 l 422 316 z "},"…":{"ha":1135,"x_min":126,"x_max":1009,"o":"m 126 126 l 252 126 l 252 0 l 126 0 l 126 126 m 505 126 l 631 126 l 631 0 l 505 0 l 505 126 m 883 126 l 1009 126 l 1009 0 l 883 0 l 883 126 z "},"ç":{"ha":945,"x_min":126,"x_max":819,"o":"m 505 631 q 600 622 555 631 q 686 593 646 612 q 760 549 726 575 q 819 492 793 524 l 707 429 q 505 505 632 505 q 408 490 454 505 q 328 450 362 475 q 273 390 293 425 q 252 316 252 355 q 273 241 252 276 q 328 181 293 207 q 408 141 362 156 q 505 126 454 126 q 707 202 632 126 l 819 140 q 714 52 777 87 q 575 5 651 17 l 575 -100 l 449 -226 l 449 3 q 321 38 380 10 q 219 109 262 66 q 151 204 176 151 q 126 316 126 258 q 156 439 126 382 q 238 539 186 496 q 359 607 290 582 q 505 631 428 631 z "},"Ç":{"ha":1137,"x_min":126,"x_max":1010,"o":"m 600 884 q 725 868 665 884 q 837 823 785 852 q 934 754 890 794 q 1009 665 978 713 l 898 604 q 843 667 875 638 q 773 715 812 695 q 691 747 734 736 q 600 758 647 758 q 465 732 528 758 q 355 665 402 707 q 280 564 307 622 q 252 441 252 507 q 280 319 252 377 q 355 219 307 262 q 465 151 402 176 q 600 126 528 126 q 692 137 648 126 q 774 169 736 149 q 844 218 812 190 q 899 281 876 247 l 1010 221 q 946 141 983 178 q 864 76 909 104 q 767 28 819 47 q 659 3 715 9 l 659 -100 l 532 -226 l 532 4 q 372 53 446 14 q 243 152 298 92 q 157 286 188 211 q 126 441 126 360 q 264 754 126 623 q 600 884 402 884 z "},"Ã":{"ha":1270,"x_min":126,"x_max":1137,"o":"m 631 742 l 422 316 l 840 316 l 631 742 m 360 190 l 267 0 l 126 0 l 562 884 l 702 884 l 1137 0 l 996 0 l 903 190 l 360 190 m 353 945 q 366 1021 353 985 q 404 1084 379 1057 q 464 1128 429 1112 q 541 1146 498 1144 q 605 1134 576 1146 q 655 1108 633 1122 q 695 1082 678 1093 q 726 1070 713 1070 q 754 1076 743 1070 q 774 1093 766 1082 q 787 1116 783 1103 q 791 1143 791 1129 l 917 1143 q 903 1070 917 1106 q 865 1005 890 1034 q 805 961 841 977 q 725 944 769 944 q 663 956 691 944 q 613 982 635 967 q 573 1008 591 996 q 543 1020 555 1020 q 525 1017 536 1020 q 504 1006 514 1015 q 486 983 494 998 q 479 945 479 969 l 353 945 z "},"ã":{"ha":1010,"x_min":126,"x_max":884,"o":"m 316 0 q 242 15 277 0 q 182 56 208 30 q 141 116 156 81 q 126 190 126 151 q 141 262 126 228 q 182 323 156 297 q 242 364 208 349 q 316 379 277 379 l 569 379 q 631 441 631 379 q 569 505 631 505 l 316 505 q 252 441 252 505 l 126 441 q 141 515 126 480 q 182 575 156 549 q 242 616 208 601 q 316 631 277 631 l 569 631 q 642 616 607 631 q 702 575 676 601 q 743 515 728 549 q 758 441 758 480 l 758 190 q 821 126 758 126 l 884 126 l 884 0 l 821 0 q 695 49 748 0 q 569 0 640 0 l 316 0 m 631 263 q 569 253 604 253 l 316 253 q 252 190 252 253 q 316 126 252 126 l 569 126 q 631 190 631 126 l 631 263 m 222 686 q 236 762 222 726 q 274 825 249 798 q 333 869 298 852 q 411 887 368 885 q 474 875 446 887 q 525 849 503 863 q 565 823 548 834 q 596 811 583 811 q 624 817 612 811 q 644 834 636 823 q 656 857 652 844 q 661 884 661 870 l 787 884 q 773 811 787 847 q 735 746 760 774 q 675 702 711 718 q 595 685 639 685 q 533 696 561 685 q 483 723 505 708 q 443 749 460 737 q 413 761 425 761 q 395 758 406 761 q 374 747 384 755 q 356 724 363 739 q 349 686 349 710 l 222 686 z "},"Ø":{"ha":1137,"x_min":126,"x_max":1010,"o":"m 914 888 l 846 786 q 970 632 929 719 q 1010 441 1010 545 q 880 130 1010 258 q 569 0 751 0 q 357 52 452 0 l 325 4 l 173 4 l 256 128 l 256 130 q 126 441 126 258 q 256 754 126 625 q 569 884 385 884 q 738 852 659 884 l 762 888 l 914 888 m 569 126 q 690 151 633 126 q 791 219 748 176 q 859 320 833 262 q 884 441 884 377 q 857 572 884 512 q 776 680 830 633 l 428 157 q 569 126 490 126 m 569 758 q 446 732 504 758 q 346 665 389 707 q 277 564 302 622 q 252 441 252 507 q 328 237 252 323 l 665 743 q 569 758 621 758 z "},"ø":{"ha":1010,"x_min":126,"x_max":884,"o":"m 848 644 l 763 547 q 854 441 824 500 q 884 316 884 382 q 853 193 884 251 q 772 93 823 136 q 652 25 721 50 q 505 0 583 0 q 320 39 400 0 l 287 0 l 135 0 l 224 102 q 126 316 126 192 q 156 439 126 382 q 238 539 186 496 q 359 607 290 582 q 505 631 428 631 q 661 604 587 631 l 696 644 l 848 644 m 505 126 q 602 141 556 126 q 682 182 648 156 q 737 242 717 208 q 758 316 758 277 q 683 450 758 394 l 680 452 l 408 140 q 505 126 455 126 m 505 505 q 408 490 454 505 q 328 450 362 475 q 273 390 293 425 q 252 316 252 355 q 307 197 252 248 l 570 499 q 538 504 554 502 q 505 505 522 505 z "},"õ":{"ha":1010,"x_min":126,"x_max":884,"o":"m 505 631 q 652 606 583 631 q 772 538 721 581 q 853 438 823 496 q 884 316 884 380 q 853 193 884 251 q 772 93 823 136 q 652 25 721 50 q 505 0 583 0 q 359 25 428 0 q 238 93 290 50 q 156 193 186 136 q 126 316 126 250 q 156 439 126 382 q 238 539 186 496 q 359 607 290 582 q 505 631 428 631 m 505 505 q 408 490 454 505 q 328 450 362 475 q 273 390 293 425 q 252 316 252 355 q 273 241 252 276 q 328 181 293 207 q 408 141 362 156 q 505 126 454 126 q 602 141 556 126 q 682 182 648 156 q 737 242 717 208 q 758 316 758 277 q 737 389 758 355 q 682 450 717 424 q 602 490 648 475 q 505 505 556 505 m 222 686 q 236 762 222 726 q 274 825 249 798 q 333 869 298 852 q 411 887 368 885 q 474 875 446 887 q 525 849 503 863 q 565 823 548 834 q 596 811 583 811 q 624 817 612 811 q 644 834 636 823 q 656 857 652 844 q 661 884 661 870 l 787 884 q 773 811 787 847 q 735 746 760 774 q 675 702 711 718 q 595 685 639 685 q 533 696 561 685 q 483 723 505 708 q 443 749 460 737 q 413 761 425 761 q 395 758 406 761 q 374 747 384 755 q 356 724 363 739 q 349 686 349 710 l 222 686 z "},"Õ":{"ha":1137,"x_min":126,"x_max":1010,"o":"m 569 884 q 880 754 751 884 q 1010 441 1010 625 q 880 130 1010 258 q 569 0 749 0 q 256 130 385 0 q 126 441 126 257 q 256 754 126 625 q 569 884 385 884 m 569 758 q 446 732 504 758 q 346 665 389 707 q 277 564 302 622 q 252 441 252 507 q 277 319 252 377 q 346 219 302 262 q 446 151 389 176 q 569 126 504 126 q 690 151 633 126 q 791 219 748 176 q 859 320 833 262 q 884 441 884 377 q 859 564 884 506 q 791 664 833 621 q 690 732 748 707 q 569 758 633 758 m 282 930 q 295 1006 282 970 q 333 1069 309 1042 q 393 1112 358 1096 q 471 1131 428 1128 q 534 1119 506 1131 q 585 1092 562 1107 q 625 1066 608 1078 q 656 1055 642 1055 q 684 1061 672 1055 q 704 1077 696 1067 q 716 1101 712 1088 q 720 1128 720 1114 l 846 1128 q 833 1054 846 1090 q 795 990 819 1018 q 734 945 770 962 q 654 928 699 928 q 593 940 621 928 q 543 966 565 951 q 503 992 520 981 q 473 1004 485 1004 q 454 1002 465 1004 q 433 990 444 999 q 416 968 423 982 q 408 930 408 954 l 282 930 z "},"×":{"ha":749,"x_min":156,"x_max":602,"o":"m 245 539 l 379 405 l 513 539 l 602 450 l 469 316 l 602 182 l 513 92 l 379 227 l 245 92 l 156 182 l 290 316 l 156 450 l 245 539 z "},"‰":{"ha":1390,"x_min":126,"x_max":1305,"o":"m 876 884 l 287 0 l 135 0 l 724 884 l 876 884 m 1116 380 q 1190 365 1156 380 q 1250 323 1224 349 q 1290 263 1276 298 q 1305 191 1305 229 q 1290 117 1305 151 q 1250 56 1276 82 q 1190 16 1224 31 q 1116 1 1156 1 q 1043 16 1077 1 q 982 56 1008 31 q 941 117 956 82 q 926 191 926 151 q 941 263 926 229 q 982 323 956 298 q 1043 365 1008 349 q 1116 380 1077 380 m 1161 235 q 1116 254 1142 254 q 1071 235 1089 254 q 1053 191 1053 216 q 1071 145 1053 163 q 1116 127 1090 127 q 1160 145 1141 127 q 1179 191 1179 163 q 1161 235 1179 214 m 316 884 q 389 869 354 884 q 449 828 423 854 q 490 768 475 802 q 505 695 505 733 q 490 621 505 656 q 449 561 475 587 q 389 520 423 535 q 316 505 354 505 q 242 520 277 505 q 182 561 208 535 q 141 621 156 587 q 126 695 126 656 q 141 768 126 733 q 182 828 156 802 q 242 869 208 854 q 316 884 277 884 m 360 739 q 316 758 340 758 q 290 752 302 758 q 270 738 279 747 q 257 718 262 729 q 252 695 252 707 q 257 671 252 683 q 271 651 262 660 q 291 637 279 642 q 316 631 302 631 q 360 650 342 631 q 379 695 379 669 q 374 719 379 708 q 360 739 369 729 m 695 379 q 768 364 734 379 q 828 323 803 349 q 869 262 854 297 q 884 190 884 228 q 869 116 884 151 q 828 56 854 81 q 768 15 803 30 q 695 0 734 0 q 621 15 656 0 q 561 56 587 30 q 520 116 535 81 q 505 190 505 151 q 520 262 505 228 q 561 323 535 297 q 621 364 587 349 q 695 379 656 379 m 739 234 q 695 253 721 253 q 649 234 667 253 q 631 190 631 214 q 650 144 631 163 q 695 126 668 126 q 739 144 720 126 q 758 190 758 162 q 739 234 758 214 z "},"`":{"ha":1337,"x_min":54,"x_max":267,"o":"m 54 1152 l 172 1152 l 267 940 l 147 940 l 54 1152 z "},"À":{"ha":1270,"x_min":126,"x_max":1137,"o":"m 631 742 l 422 316 l 840 316 l 631 742 m 360 190 l 267 0 l 126 0 l 562 884 l 702 884 l 1137 0 l 996 0 l 903 190 l 360 190 m 528 1152 l 647 1152 l 741 940 l 622 940 l 528 1152 z "},"¥":{"ha":1137,"x_min":126,"x_max":1010,"o":"m 316 132 l 316 258 l 505 258 l 505 344 l 479 380 l 316 380 l 316 506 l 391 506 l 126 884 l 281 884 l 545 506 l 591 506 l 855 884 l 1010 884 l 745 506 l 821 506 l 821 380 l 656 380 l 631 344 l 631 258 l 821 258 l 821 132 l 631 132 l 631 0 l 505 0 l 505 132 l 316 132 z "},"È":{"ha":1137,"x_min":126,"x_max":1010,"o":"m 126 884 l 1010 884 l 1010 758 l 252 758 l 252 505 l 884 505 l 884 379 l 252 379 l 252 126 l 1010 126 l 1010 0 l 126 0 l 126 884 m 462 1152 l 581 1152 l 675 940 l 555 940 l 462 1152 z "},"Ì":{"ha":378,"x_min":83,"x_max":296,"o":"m 126 0 l 126 884 l 252 884 l 252 0 l 126 0 m 83 1152 l 201 1152 l 296 940 l 176 940 l 83 1152 z "},"Ò":{"ha":1137,"x_min":126,"x_max":1010,"o":"m 569 884 q 880 754 751 884 q 1010 441 1010 625 q 880 130 1010 258 q 569 0 749 0 q 256 130 385 0 q 126 441 126 257 q 256 754 126 625 q 569 884 385 884 m 569 758 q 446 732 504 758 q 346 665 389 707 q 277 564 302 622 q 252 441 252 507 q 277 319 252 377 q 346 219 302 262 q 446 151 389 176 q 569 126 504 126 q 690 151 633 126 q 791 219 748 176 q 859 320 833 262 q 884 441 884 377 q 859 564 884 506 q 791 664 833 621 q 690 732 748 707 q 569 758 633 758 m 462 1152 l 581 1152 l 675 940 l 555 940 l 462 1152 z "},"Ù":{"ha":1137,"x_min":126,"x_max":1010,"o":"m 1010 441 q 880 130 1010 258 q 569 0 749 0 q 256 130 385 0 q 126 441 126 258 l 126 884 l 252 884 l 252 441 q 277 319 252 377 q 346 219 302 262 q 446 151 389 176 q 569 126 504 126 q 690 151 633 126 q 791 219 748 176 q 859 320 833 262 q 884 441 884 377 l 884 884 l 1010 884 l 1010 441 m 462 1152 l 581 1152 l 675 940 l 555 940 l 462 1152 z "},"´":{"ha":1337,"x_min":106,"x_max":319,"o":"m 225 940 l 106 940 l 200 1152 l 319 1152 l 225 940 z "},"Ó":{"ha":1137,"x_min":126,"x_max":1010,"o":"m 569 884 q 880 754 751 884 q 1010 441 1010 625 q 880 130 1010 258 q 569 0 749 0 q 256 130 385 0 q 126 441 126 257 q 256 754 126 625 q 569 884 385 884 m 569 758 q 446 732 504 758 q 346 665 389 707 q 277 564 302 622 q 252 441 252 507 q 277 319 252 377 q 346 219 302 262 q 446 151 389 176 q 569 126 504 126 q 690 151 633 126 q 791 219 748 176 q 859 320 833 262 q 884 441 884 377 q 859 564 884 506 q 791 664 833 621 q 690 732 748 707 q 569 758 633 758 m 633 940 l 514 940 l 608 1152 l 727 1152 l 633 940 z "},"Ú":{"ha":1137,"x_min":126,"x_max":1010,"o":"m 1010 441 q 880 130 1010 258 q 569 0 749 0 q 256 130 385 0 q 126 441 126 258 l 126 884 l 252 884 l 252 441 q 277 319 252 377 q 346 219 302 262 q 446 151 389 176 q 569 126 504 126 q 690 151 633 126 q 791 219 748 176 q 859 320 833 262 q 884 441 884 377 l 884 884 l 1010 884 l 1010 441 m 581 940 l 461 940 l 555 1152 l 674 1152 l 581 940 z "},"Ý":{"ha":1137,"x_min":126,"x_max":1010,"o":"m 631 344 l 631 0 l 505 0 l 505 344 l 126 884 l 281 884 l 569 473 l 855 884 l 1010 884 l 631 344 m 581 940 l 461 940 l 555 1152 l 674 1152 l 581 940 z "},"É":{"ha":1137,"x_min":126,"x_max":1010,"o":"m 126 884 l 1010 884 l 1010 758 l 252 758 l 252 505 l 884 505 l 884 379 l 252 379 l 252 126 l 1010 126 l 1010 0 l 126 0 l 126 884 m 581 940 l 461 940 l 555 1152 l 674 1152 l 581 940 z "},"Á":{"ha":1270,"x_min":126,"x_max":1137,"o":"m 631 742 l 422 316 l 840 316 l 631 742 m 360 190 l 267 0 l 126 0 l 562 884 l 702 884 l 1137 0 l 996 0 l 903 190 l 360 190 m 648 940 l 528 940 l 623 1152 l 741 1152 l 648 940 z "},"Ï":{"ha":378,"x_min":-1,"x_max":380,"o":"m 126 0 l 126 884 l 252 884 l 252 0 l 126 0 m -1 1079 l 125 1079 l 125 951 l -1 951 l -1 1079 m 254 1079 l 380 1079 l 380 951 l 254 951 l 254 1079 z "},"Í":{"ha":378,"x_min":85,"x_max":298,"o":"m 126 0 l 126 884 l 252 884 l 252 0 l 126 0 m 204 940 l 85 940 l 179 1152 l 298 1152 l 204 940 z "},"à":{"ha":1010,"x_min":126,"x_max":884,"o":"m 316 0 q 242 15 277 0 q 182 56 208 30 q 141 116 156 81 q 126 190 126 151 q 141 262 126 228 q 182 323 156 297 q 242 364 208 349 q 316 379 277 379 l 569 379 q 631 441 631 379 q 569 505 631 505 l 316 505 q 252 441 252 505 l 126 441 q 141 515 126 480 q 182 575 156 549 q 242 616 208 601 q 316 631 277 631 l 569 631 q 642 616 607 631 q 702 575 676 601 q 743 515 728 549 q 758 441 758 480 l 758 190 q 821 126 758 126 l 884 126 l 884 0 l 821 0 q 695 49 748 0 q 569 0 640 0 l 316 0 m 631 263 q 569 253 604 253 l 316 253 q 252 190 252 253 q 316 126 252 126 l 569 126 q 631 190 631 126 l 631 263 m 330 895 l 448 895 l 543 684 l 423 684 l 330 895 z "},"á":{"ha":1010,"x_min":126,"x_max":884,"o":"m 316 0 q 242 15 277 0 q 182 56 208 30 q 141 116 156 81 q 126 190 126 151 q 141 262 126 228 q 182 323 156 297 q 242 364 208 349 q 316 379 277 379 l 569 379 q 631 441 631 379 q 569 505 631 505 l 316 505 q 252 441 252 505 l 126 441 q 141 515 126 480 q 182 575 156 549 q 242 616 208 601 q 316 631 277 631 l 569 631 q 642 616 607 631 q 702 575 676 601 q 743 515 728 549 q 758 441 758 480 l 758 190 q 821 126 758 126 l 884 126 l 884 0 l 821 0 q 695 49 748 0 q 569 0 640 0 l 316 0 m 631 263 q 569 253 604 253 l 316 253 q 252 190 252 253 q 316 126 252 126 l 569 126 q 631 190 631 126 l 631 263 m 532 720 l 413 720 l 507 931 l 626 931 l 532 720 z "},"è":{"ha":1010,"x_min":126,"x_max":884,"o":"m 505 631 q 652 606 583 631 q 772 538 721 581 q 853 438 823 496 q 884 316 884 380 l 884 253 l 267 253 q 303 202 279 226 q 358 162 327 178 q 426 136 389 145 q 505 126 464 126 q 707 202 632 126 l 819 140 q 686 38 768 75 q 505 0 604 0 q 359 25 428 0 q 238 93 290 50 q 156 193 186 136 q 126 316 126 250 q 156 439 126 382 q 238 539 186 496 q 359 607 290 582 q 505 631 428 631 m 743 379 q 707 430 730 406 q 652 470 683 453 q 583 496 621 486 q 505 505 546 505 q 427 496 465 505 q 358 470 389 486 q 303 430 327 453 q 267 379 279 406 l 743 379 m 361 924 l 479 924 l 574 712 l 454 712 l 361 924 z "},"é":{"ha":1010,"x_min":126,"x_max":884,"o":"m 505 631 q 652 606 583 631 q 772 538 721 581 q 853 438 823 496 q 884 316 884 380 l 884 253 l 267 253 q 303 202 279 226 q 358 162 327 178 q 426 136 389 145 q 505 126 464 126 q 707 202 632 126 l 819 140 q 686 38 768 75 q 505 0 604 0 q 359 25 428 0 q 238 93 290 50 q 156 193 186 136 q 126 316 126 250 q 156 439 126 382 q 238 539 186 496 q 359 607 290 582 q 505 631 428 631 m 743 379 q 707 430 730 406 q 652 470 683 453 q 583 496 621 486 q 505 505 546 505 q 427 496 465 505 q 358 470 389 486 q 303 430 327 453 q 267 379 279 406 l 743 379 m 565 715 l 446 715 l 540 927 l 659 927 l 565 715 z "},"µ":{"ha":1010,"x_min":126,"x_max":948,"o":"m 948 135 l 948 9 q 814 64 869 9 l 813 64 l 758 41 q 705 24 738 32 q 635 11 672 16 q 563 2 598 5 q 505 -1 528 -1 q 252 79 358 -1 l 252 -258 l 126 -258 l 126 631 l 252 631 l 252 315 q 277 240 252 275 q 340 180 302 206 q 422 140 378 155 q 505 125 467 125 q 758 190 682 125 l 758 631 l 884 631 l 883 627 l 884 627 l 884 197 q 948 135 884 135 z "},"ˆ":{"ha":648,"x_min":117,"x_max":536,"o":"m 117 697 l 273 884 l 392 884 l 536 697 l 402 697 l 328 761 l 252 697 l 117 697 z "},"Â":{"ha":1270,"x_min":126,"x_max":1137,"o":"m 631 742 l 422 316 l 840 316 l 631 742 m 360 190 l 267 0 l 126 0 l 562 884 l 702 884 l 1137 0 l 996 0 l 903 190 l 360 190 m 425 932 l 579 1117 l 697 1117 l 840 932 l 707 932 l 633 995 l 558 932 l 425 932 z "},"Ê":{"ha":1137,"x_min":126,"x_max":1010,"o":"m 126 884 l 1010 884 l 1010 758 l 252 758 l 252 505 l 884 505 l 884 379 l 252 379 l 252 126 l 1010 126 l 1010 0 l 126 0 l 126 884 m 388 953 l 544 1140 l 663 1140 l 807 953 l 673 953 l 598 1017 l 523 953 l 388 953 z "},"Î":{"ha":378,"x_min":-19,"x_max":400,"o":"m 126 0 l 126 884 l 252 884 l 252 0 l 126 0 m -19 943 l 137 1130 l 256 1130 l 400 943 l 266 943 l 191 1006 l 116 943 l -19 943 z "},"Ô":{"ha":1137,"x_min":126,"x_max":1010,"o":"m 569 884 q 880 754 751 884 q 1010 441 1010 625 q 880 130 1010 258 q 569 0 749 0 q 256 130 385 0 q 126 441 126 257 q 256 754 126 625 q 569 884 385 884 m 569 758 q 446 732 504 758 q 346 665 389 707 q 277 564 302 622 q 252 441 252 507 q 277 319 252 377 q 346 219 302 262 q 446 151 389 176 q 569 126 504 126 q 690 151 633 126 q 791 219 748 176 q 859 320 833 262 q 884 441 884 377 q 859 564 884 506 q 791 664 833 621 q 690 732 748 707 q 569 758 633 758 m 347 918 l 503 1105 l 621 1105 l 766 918 l 631 918 l 557 981 l 481 918 l 347 918 z "},"Û":{"ha":1137,"x_min":126,"x_max":1010,"o":"m 1010 441 q 880 130 1010 258 q 569 0 749 0 q 256 130 385 0 q 126 441 126 258 l 126 884 l 252 884 l 252 441 q 277 319 252 377 q 346 219 302 262 q 446 151 389 176 q 569 126 504 126 q 690 151 633 126 q 791 219 748 176 q 859 320 833 262 q 884 441 884 377 l 884 884 l 1010 884 l 1010 441 m 347 957 l 503 1144 l 621 1144 l 766 957 l 631 957 l 557 1021 l 481 957 l 347 957 z "},"â":{"ha":1010,"x_min":126,"x_max":884,"o":"m 316 0 q 242 15 277 0 q 182 56 208 30 q 141 116 156 81 q 126 190 126 151 q 141 262 126 228 q 182 323 156 297 q 242 364 208 349 q 316 379 277 379 l 569 379 q 631 441 631 379 q 569 505 631 505 l 316 505 q 252 441 252 505 l 126 441 q 141 515 126 480 q 182 575 156 549 q 242 616 208 601 q 316 631 277 631 l 569 631 q 642 616 607 631 q 702 575 676 601 q 743 515 728 549 q 758 441 758 480 l 758 190 q 821 126 758 126 l 884 126 l 884 0 l 821 0 q 695 49 748 0 q 569 0 640 0 l 316 0 m 631 263 q 569 253 604 253 l 316 253 q 252 190 252 253 q 316 126 252 126 l 569 126 q 631 190 631 126 l 631 263 m 258 697 l 414 884 l 533 884 l 677 697 l 543 697 l 469 761 l 393 697 l 258 697 z "},"ò":{"ha":1010,"x_min":126,"x_max":884,"o":"m 505 631 q 652 606 583 631 q 772 538 721 581 q 853 438 823 496 q 884 316 884 380 q 853 193 884 251 q 772 93 823 136 q 652 25 721 50 q 505 0 583 0 q 359 25 428 0 q 238 93 290 50 q 156 193 186 136 q 126 316 126 250 q 156 439 126 382 q 238 539 186 496 q 359 607 290 582 q 505 631 428 631 m 505 505 q 408 490 454 505 q 328 450 362 475 q 273 390 293 425 q 252 316 252 355 q 273 241 252 276 q 328 181 293 207 q 408 141 362 156 q 505 126 454 126 q 602 141 556 126 q 682 182 648 156 q 737 242 717 208 q 758 316 758 277 q 737 389 758 355 q 682 450 717 424 q 602 490 648 475 q 505 505 556 505 m 366 928 l 484 928 l 578 717 l 459 717 l 366 928 z "},"ó":{"ha":1010,"x_min":126,"x_max":884,"o":"m 505 631 q 652 606 583 631 q 772 538 721 581 q 853 438 823 496 q 884 316 884 380 q 853 193 884 251 q 772 93 823 136 q 652 25 721 50 q 505 0 583 0 q 359 25 428 0 q 238 93 290 50 q 156 193 186 136 q 126 316 126 250 q 156 439 126 382 q 238 539 186 496 q 359 607 290 582 q 505 631 428 631 m 505 505 q 408 490 454 505 q 328 450 362 475 q 273 390 293 425 q 252 316 252 355 q 273 241 252 276 q 328 181 293 207 q 408 141 362 156 q 505 126 454 126 q 602 141 556 126 q 682 182 648 156 q 737 242 717 208 q 758 316 758 277 q 737 389 758 355 q 682 450 717 424 q 602 490 648 475 q 505 505 556 505 m 533 733 l 414 733 l 508 945 l 627 945 l 533 733 z "},"ô":{"ha":1010,"x_min":126,"x_max":884,"o":"m 505 631 q 652 606 583 631 q 772 538 721 581 q 853 438 823 496 q 884 316 884 380 q 853 193 884 251 q 772 93 823 136 q 652 25 721 50 q 505 0 583 0 q 359 25 428 0 q 238 93 290 50 q 156 193 186 136 q 126 316 126 250 q 156 439 126 382 q 238 539 186 496 q 359 607 290 582 q 505 631 428 631 m 505 505 q 408 490 454 505 q 328 450 362 475 q 273 390 293 425 q 252 316 252 355 q 273 241 252 276 q 328 181 293 207 q 408 141 362 156 q 505 126 454 126 q 602 141 556 126 q 682 182 648 156 q 737 242 717 208 q 758 316 758 277 q 737 389 758 355 q 682 450 717 424 q 602 490 648 475 q 505 505 556 505 m 295 697 l 451 884 l 570 884 l 714 697 l 580 697 l 505 761 l 430 697 l 295 697 z "},"ù":{"ha":1010,"x_min":126,"x_max":884,"o":"m 505 -1 q 359 24 428 -1 q 238 92 290 49 q 156 192 186 135 q 126 315 126 249 l 126 631 l 252 631 l 252 315 q 277 240 252 275 q 340 180 302 206 q 422 140 378 155 q 505 125 467 125 q 758 190 682 125 l 758 631 l 884 631 l 884 -1 l 758 -1 l 758 41 q 705 24 738 32 q 635 11 672 16 q 563 2 598 5 q 505 -1 528 -1 m 353 932 l 472 932 l 566 720 l 447 720 l 353 932 z "},"ú":{"ha":1010,"x_min":126,"x_max":884,"o":"m 505 -1 q 359 24 428 -1 q 238 92 290 49 q 156 192 186 135 q 126 315 126 249 l 126 631 l 252 631 l 252 315 q 277 240 252 275 q 340 180 302 206 q 422 140 378 155 q 505 125 467 125 q 758 190 682 125 l 758 631 l 884 631 l 884 -1 l 758 -1 l 758 41 q 705 24 738 32 q 635 11 672 16 q 563 2 598 5 q 505 -1 528 -1 m 534 724 l 414 724 l 509 936 l 627 936 l 534 724 z "},"û":{"ha":1010,"x_min":126,"x_max":884,"o":"m 505 -1 q 359 24 428 -1 q 238 92 290 49 q 156 192 186 135 q 126 315 126 249 l 126 631 l 252 631 l 252 315 q 277 240 252 275 q 340 180 302 206 q 422 140 378 155 q 505 125 467 125 q 758 190 682 125 l 758 631 l 884 631 l 884 -1 l 758 -1 l 758 41 q 705 24 738 32 q 635 11 672 16 q 563 2 598 5 q 505 -1 528 -1 m 295 697 l 451 884 l 570 884 l 714 697 l 580 697 l 505 761 l 430 697 l 295 697 z "},"ý":{"ha":1010,"x_min":126,"x_max":884,"o":"m 267 631 l 505 143 l 743 631 l 884 631 l 522 -111 q 294 -252 453 -252 l 190 -252 l 190 -125 l 294 -125 q 408 -55 374 -125 l 435 0 l 126 631 l 267 631 m 558 715 l 439 715 l 533 927 l 652 927 l 558 715 z "},"ê":{"ha":1010,"x_min":126,"x_max":884,"o":"m 505 631 q 652 606 583 631 q 772 538 721 581 q 853 438 823 496 q 884 316 884 380 l 884 253 l 267 253 q 303 202 279 226 q 358 162 327 178 q 426 136 389 145 q 505 126 464 126 q 707 202 632 126 l 819 140 q 686 38 768 75 q 505 0 604 0 q 359 25 428 0 q 238 93 290 50 q 156 193 186 136 q 126 316 126 250 q 156 439 126 382 q 238 539 186 496 q 359 607 290 582 q 505 631 428 631 m 743 379 q 707 430 730 406 q 652 470 683 453 q 583 496 621 486 q 505 505 546 505 q 427 496 465 505 q 358 470 389 486 q 303 430 327 453 q 267 379 279 406 l 743 379 m 295 697 l 451 884 l 570 884 l 714 697 l 580 697 l 505 761 l 430 697 l 295 697 z "},"ì":{"ha":378,"x_min":30,"x_max":252,"o":"m 126 631 l 252 631 l 252 0 l 126 0 l 126 631 m 30 988 l 149 988 l 243 777 l 124 777 l 30 988 z "},"í":{"ha":378,"x_min":127,"x_max":349,"o":"m 253 631 l 127 631 l 127 0 l 253 0 l 253 631 m 256 777 l 136 777 l 231 988 l 349 988 l 256 777 z "},"î":{"ha":378,"x_min":-20,"x_max":399,"o":"m 126 631 l 252 631 l 252 0 l 126 0 l 126 631 m -20 697 l 126 884 l 254 884 l 399 697 l 264 697 l 190 761 l 115 697 l -20 697 z "},"ï":{"ha":378,"x_min":37,"x_max":353,"o":"m 126 631 l 252 631 l 252 0 l 126 0 l 126 631 m 37 884 l 126 884 l 163 758 l 37 758 l 37 884 m 227 884 l 353 884 l 353 758 l 227 758 l 227 884 z "},"÷":{"ha":378,"x_min":126,"x_max":252,"o":"m 126 338 l 252 338 l 252 212 l 126 212 l 126 338 m 126 844 l 252 844 l 252 718 l 126 718 l 126 844 z "},"¿":{"ha":867,"x_min":126,"x_max":758,"o":"m 758 253 q 738 156 758 201 q 683 75 718 110 q 603 20 648 41 q 505 0 557 0 l 378 0 q 280 20 327 0 q 200 75 234 40 q 146 155 166 109 q 126 253 126 201 q 139 331 126 294 q 173 398 151 368 q 226 453 195 429 q 292 491 256 477 l 293 491 q 328 511 312 498 q 355 539 344 524 q 373 573 367 555 q 379 612 379 591 l 378 695 l 505 695 l 505 612 q 493 536 505 572 q 460 469 481 500 q 407 413 438 437 q 337 373 375 388 q 276 327 299 359 q 252 253 252 295 q 262 204 252 227 q 289 164 272 181 q 330 137 307 146 q 378 127 353 127 l 505 127 q 554 137 531 127 q 594 164 577 147 q 622 205 612 182 q 631 253 631 228 l 758 253 m 505 758 l 369 758 l 369 884 l 505 884 l 505 758 z "},"”":{"ha":630,"x_min":130,"x_max":501,"o":"m 379 884 l 501 884 l 501 762 l 379 631 l 379 884 m 130 884 l 252 884 l 252 762 l 130 631 l 130 884 z "},"“":{"ha":630,"x_min":130,"x_max":501,"o":"m 252 631 l 130 762 l 130 884 l 252 884 l 252 631 m 501 631 l 379 762 l 379 884 l 501 884 l 501 631 z "},"‘":{"ha":364,"x_min":130,"x_max":252,"o":"m 252 631 l 130 762 l 130 884 l 252 884 l 252 631 z "},"’":{"ha":378,"x_min":130,"x_max":252,"o":"m 130 884 l 252 884 l 252 762 l 130 631 l 130 884 z "},"‚":{"ha":378,"x_min":126,"x_max":252,"o":"m 126 126 l 252 126 l 252 0 l 126 -125 l 126 126 z "},"„":{"ha":612,"x_min":126,"x_max":504,"o":"m 378 126 l 504 126 l 504 0 l 378 -125 l 378 126 m 126 126 l 252 126 l 252 0 l 126 -125 l 126 126 z "},"¹":{"ha":495,"x_min":126,"x_max":379,"o":"m 126 768 l 256 884 l 379 884 l 379 379 l 252 379 l 252 712 l 126 600 l 126 768 z "},"²":{"ha":659,"x_min":126,"x_max":536,"o":"m 536 379 l 126 379 l 126 496 l 363 637 q 388 665 379 648 q 397 692 397 682 q 392 717 397 705 q 377 738 386 728 q 354 752 368 747 q 325 758 340 758 q 295 752 309 758 q 273 738 282 747 q 258 717 263 728 q 252 692 252 705 l 126 692 q 142 767 126 732 q 184 828 157 802 q 248 869 212 854 q 325 884 284 884 q 401 869 365 884 q 464 828 437 854 q 507 767 491 802 q 524 692 524 732 q 516 647 524 670 q 497 603 509 625 q 468 563 485 581 q 431 530 451 544 l 389 505 l 536 505 l 536 379 z "},"³":{"ha":663,"x_min":126,"x_max":536,"o":"m 252 569 q 258 545 252 556 q 275 525 264 534 q 300 510 286 515 q 332 505 315 505 q 360 510 347 505 q 385 523 374 515 q 403 543 396 531 q 410 569 410 555 q 403 594 410 582 q 385 614 396 606 q 360 627 374 622 q 332 631 347 631 q 305 628 316 631 q 281 617 294 625 l 213 723 l 214 724 q 216 726 216 724 l 266 758 l 126 758 l 126 884 l 536 884 l 536 787 l 445 726 q 514 657 491 699 q 536 569 536 616 q 520 494 536 529 q 476 434 504 460 q 410 394 448 409 q 332 379 373 379 q 253 394 290 379 q 187 434 216 409 q 142 494 159 460 q 126 569 126 529 l 252 569 z "},"¾":{"ha":1147,"x_min":126,"x_max":1053,"o":"m 1024 502 l 845 186 l 895 186 l 895 249 l 1021 249 l 1021 186 l 1053 186 l 1053 60 l 1021 60 l 1021 -3 l 895 -3 l 895 60 l 698 60 l 698 182 l 879 502 l 1024 502 m 1034 887 l 445 2 l 293 2 l 882 887 l 1034 887 m 252 569 q 258 545 252 556 q 275 525 264 534 q 300 510 286 515 q 332 505 315 505 q 360 510 347 505 q 385 523 374 515 q 403 543 396 531 q 410 569 410 555 q 403 594 410 582 q 385 614 396 606 q 360 627 374 622 q 332 631 347 631 q 305 628 316 631 q 281 617 294 625 l 213 723 l 214 724 q 216 726 216 724 l 266 758 l 126 758 l 126 884 l 536 884 l 536 787 l 445 726 q 514 657 491 699 q 536 569 536 616 q 520 494 536 529 q 476 434 504 460 q 410 394 448 409 q 332 379 373 379 q 253 394 290 379 q 187 434 216 409 q 142 494 159 460 q 126 569 126 529 l 252 569 z "},"¶":{"ha":1104,"x_min":126,"x_max":758,"o":"m 372 884 q 565 884 469 884 q 758 884 661 884 l 758 0 l 631 0 l 631 758 l 500 758 q 500 379 500 568 q 500 0 500 190 l 372 0 l 372 253 q 204 316 282 253 q 126 569 126 378 q 208 819 126 753 q 372 884 289 884 z "},"©":{"ha":1010,"x_min":126,"x_max":884,"o":"m 505 884 q 777 751 666 884 q 884 441 884 621 q 777 134 884 263 q 505 0 666 0 q 233 134 344 0 q 126 441 126 264 q 233 751 126 620 q 505 884 344 884 m 682 352 q 661 297 673 322 q 628 249 647 269 q 574 206 605 221 q 505 190 543 190 q 363 273 419 190 q 316 441 316 343 q 363 611 316 541 q 505 695 419 695 q 574 678 541 695 q 628 635 605 663 q 661 587 647 613 q 682 532 673 562 l 561 499 q 549 530 555 517 q 534 552 542 542 q 517 566 526 561 q 505 569 511 569 q 469 541 486 569 q 441 441 441 500 q 469 343 441 382 q 505 316 486 316 q 518 319 512 316 q 534 332 526 322 q 549 354 540 338 q 561 385 555 368 l 682 352 m 680 670 q 505 758 607 758 q 330 670 402 758 q 252 441 252 577 q 330 214 252 307 q 505 126 403 126 q 680 214 606 126 q 758 441 758 307 q 680 670 758 576 z "},"®":{"ha":995,"x_min":126,"x_max":884,"o":"m 505 884 q 777 751 666 884 q 884 441 884 621 q 777 134 884 263 q 505 0 666 0 q 233 134 344 0 q 126 441 126 264 q 233 751 126 620 q 505 884 344 884 m 612 365 l 698 238 q 758 441 758 324 q 680 670 758 576 q 505 758 607 758 q 330 670 402 758 q 252 441 252 577 q 330 214 252 307 q 505 126 403 126 q 680 214 606 126 q 697 237 688 224 l 547 237 l 474 345 l 474 237 l 347 237 l 347 600 l 347 663 l 410 663 l 536 663 q 629 635 593 663 q 682 567 665 607 q 694 505 694 538 q 682 444 694 471 q 612 365 661 389 m 474 536 l 474 474 l 536 474 q 565 490 559 474 q 568 505 568 496 q 565 521 568 515 q 536 536 559 536 l 474 536 z "},"§":{"ha":653,"x_min":126,"x_max":505,"o":"m 379 695 q 360 739 379 721 q 316 758 340 758 q 271 739 290 758 q 252 695 252 719 q 259 667 252 682 q 277 646 264 655 l 428 531 l 428 531 q 473 484 454 510 q 504 391 504 441 q 473 295 504 338 q 479 283 476 289 q 486 271 483 277 q 505 190 505 229 q 450 56 505 111 q 316 0 394 0 q 182 56 237 0 q 126 190 126 111 l 252 190 q 271 145 252 163 q 316 126 290 126 q 360 145 342 126 q 379 190 379 162 q 373 217 379 201 q 355 239 367 229 l 203 353 l 204 353 q 158 400 177 372 q 127 494 127 443 q 159 590 126 545 q 146 613 150 602 q 126 695 126 653 q 182 829 126 773 q 316 884 237 884 q 450 829 394 884 q 505 695 505 773 l 379 695 m 352 430 l 254 504 q 253 495 253 497 q 262 473 253 484 q 279 454 266 465 l 279 454 l 377 380 q 378 390 378 387 q 370 413 378 400 q 352 430 362 422 z "},"£":{"ha":997,"x_min":126,"x_max":884,"o":"m 190 441 l 252 441 l 252 569 q 343 792 252 700 q 566 884 434 884 q 791 792 696 884 q 884 569 884 700 l 758 569 q 702 702 758 647 q 566 758 645 758 q 433 703 486 758 q 379 569 379 650 l 379 441 l 505 441 l 505 316 l 379 316 l 379 253 q 345 126 379 186 l 884 126 l 884 0 l 126 0 l 126 126 q 216 163 178 126 q 252 253 252 201 l 252 316 l 190 316 l 190 441 z "},"¼":{"ha":1052,"x_min":115,"x_max":958,"o":"m 929 502 l 751 186 l 800 186 l 800 249 l 926 249 l 926 186 l 958 186 l 958 60 l 926 60 l 926 -3 l 800 -3 l 800 60 l 642 60 l 603 60 l 603 182 l 784 502 l 929 502 m 939 887 l 350 2 l 198 2 l 787 887 l 939 887 m 115 768 l 244 884 l 368 884 l 368 379 l 241 379 l 241 712 l 115 600 l 115 768 z "},"½":{"ha":1194,"x_min":115,"x_max":1098,"o":"m 939 887 l 350 2 l 198 2 l 787 887 l 939 887 m 115 768 l 244 884 l 368 884 l 368 379 l 241 379 l 241 712 l 115 600 l 115 768 m 1098 3 l 688 3 l 688 121 l 925 261 q 950 290 941 273 q 959 317 959 307 q 954 341 959 329 q 939 361 948 353 q 916 376 929 370 q 887 382 903 382 q 857 376 870 382 q 834 361 844 370 q 819 341 825 353 q 814 317 814 329 l 688 317 q 703 390 688 355 q 746 452 719 425 q 810 493 773 478 q 887 509 846 509 q 963 493 926 509 q 1026 452 999 478 q 1069 390 1053 425 q 1085 317 1085 355 q 1078 271 1085 294 q 1059 227 1071 248 q 1030 186 1046 205 q 994 155 1013 168 l 950 130 l 1098 130 l 1098 3 z "},"•":{"ha":633,"x_min":126,"x_max":505,"o":"m 316 720 q 389 705 354 720 q 449 663 423 689 q 490 603 475 637 q 505 530 505 569 q 490 457 505 491 q 449 396 475 422 q 389 355 423 370 q 316 340 354 340 q 242 355 277 340 q 182 396 208 370 q 141 457 156 422 q 126 530 126 491 q 141 603 126 569 q 182 663 156 637 q 242 705 208 689 q 316 720 277 720 z "},"¦":{"ha":378,"x_min":126,"x_max":252,"o":"m 126 549 l 126 884 l 252 884 l 252 549 l 126 549 m 252 218 l 252 -136 l 126 -136 l 126 218 l 252 218 z "},"ª":{"ha":1010,"x_min":126,"x_max":884,"o":"m 316 254 q 242 269 277 254 q 182 310 208 284 q 141 371 156 336 q 126 444 126 405 q 141 517 126 483 q 182 577 156 551 q 242 618 208 603 q 316 633 277 633 l 569 633 q 631 696 631 633 q 569 760 631 760 l 316 760 q 252 696 252 760 l 126 696 q 141 769 126 734 q 182 829 156 804 q 242 870 208 855 q 316 886 277 886 l 569 886 q 642 870 607 886 q 702 829 676 855 q 743 769 728 804 q 758 696 758 734 l 758 444 q 821 380 758 380 l 884 380 l 884 254 l 821 254 q 695 303 748 254 q 569 254 640 254 l 316 254 m 631 518 q 569 508 604 508 l 316 508 q 252 444 252 508 q 316 380 252 380 l 569 380 q 631 444 631 380 l 631 518 z "},"º":{"ha":1010,"x_min":126,"x_max":884,"o":"m 505 884 q 652 859 583 884 q 772 791 721 834 q 853 691 823 749 q 884 569 884 633 q 853 446 884 504 q 772 346 823 389 q 652 278 721 303 q 505 253 583 253 q 359 278 428 253 q 238 346 290 302 q 156 446 186 389 q 126 569 126 503 q 156 692 126 635 q 238 792 186 749 q 359 860 290 835 q 505 884 428 884 m 505 758 q 408 743 454 758 q 328 703 362 728 q 273 643 293 677 q 252 569 252 609 q 273 494 252 529 q 328 434 293 460 q 408 394 362 409 q 505 379 454 379 q 602 394 556 379 q 682 435 648 409 q 737 495 717 460 q 758 569 758 530 q 737 642 758 608 q 682 703 717 677 q 602 743 648 728 q 505 758 556 758 z "},"Ÿ":{"ha":1137,"x_min":126,"x_max":1010,"o":"m 631 344 l 631 0 l 505 0 l 505 344 l 126 884 l 281 884 l 569 473 l 855 884 l 1010 884 l 631 344 m 316 1137 l 442 1137 l 442 1010 l 316 1010 l 316 1137 m 694 1137 l 821 1137 l 821 1010 l 694 1010 l 694 1137 z "},"¢":{"ha":945,"x_min":126,"x_max":819,"o":"m 410 0 l 410 148 q 359 162 384 153 q 238 230 290 187 q 156 331 186 273 q 126 454 126 388 q 156 576 126 519 q 238 677 186 633 q 359 744 290 720 q 410 759 384 753 l 410 884 l 536 884 l 536 768 q 600 759 569 766 q 686 731 646 749 q 760 687 726 713 q 819 630 793 661 l 707 567 q 536 642 642 633 l 536 264 q 707 340 642 273 l 819 277 q 686 176 768 213 q 536 138 616 143 l 536 0 l 410 0 m 328 587 q 273 528 293 562 q 252 454 252 494 q 273 379 252 414 q 328 319 293 345 q 408 279 362 294 q 410 278 408 278 l 410 629 q 408 628 408 628 q 328 587 362 613 z "},"–":{"ha":884,"x_min":126,"x_max":743,"o":"m 126 253 l 126 379 l 743 379 l 743 253 l 126 253 z "},"—":{"ha":1013,"x_min":126,"x_max":912,"o":"m 126 253 l 126 379 l 912 379 l 912 253 l 126 253 z "},"¬":{"ha":762,"x_min":126,"x_max":631,"o":"m 126 253 l 126 379 l 631 379 l 631 127 l 505 127 l 505 253 l 126 253 z "},"­":{"ha":762,"x_min":126,"x_max":631,"o":"m 126 253 l 126 379 l 631 379 l 631 253 l 126 253 z "},"†":{"ha":722,"x_min":115,"x_max":621,"o":"m 298 -136 l 298 562 l 115 562 l 115 688 l 298 688 l 298 884 l 424 884 l 424 688 l 621 688 l 621 562 l 424 562 l 424 -136 l 298 -136 z "},"‡":{"ha":722,"x_min":108,"x_max":613,"o":"m 298 -136 l 298 81 l 108 81 l 108 207 l 298 207 l 298 574 l 108 574 l 108 700 l 298 700 l 298 884 l 424 884 l 424 700 l 613 700 l 613 574 l 424 574 l 424 207 l 613 207 l 613 81 l 424 81 l 424 -136 l 298 -136 z "},"±":{"ha":755,"x_min":122,"x_max":631,"o":"m 122 564 l 312 564 l 312 753 l 438 753 l 438 564 l 627 564 l 627 438 l 438 438 l 438 248 l 312 248 l 312 438 l 122 438 l 122 564 m 125 5 l 125 132 l 631 132 l 631 5 l 125 5 z "},"ƒ":{"ha":696,"x_min":126,"x_max":569,"o":"m 127 -131 l 190 -131 q 253 -68 253 -131 l 252 505 l 126 505 l 126 631 l 252 631 l 253 700 q 273 771 253 738 q 329 830 294 805 q 409 870 363 855 q 505 884 454 884 q 536 883 521 884 q 569 878 552 881 l 569 749 q 556 754 560 752 q 547 756 552 755 q 533 757 542 757 q 505 758 524 758 q 468 753 490 758 q 426 740 446 748 q 393 720 406 731 q 379 695 379 708 l 379 631 l 569 631 l 569 505 l 379 505 l 379 -68 q 364 -142 379 -107 q 323 -202 349 -176 q 262 -243 297 -228 q 190 -258 228 -258 l 127 -258 l 127 -131 z "},"Š":{"ha":1137,"x_min":126,"x_max":1010,"o":"m 782 1135 l 626 948 l 508 948 l 363 1135 l 497 1135 l 572 1072 l 647 1135 l 782 1135 m 126 631 q 148 727 126 686 q 206 795 170 767 q 289 841 242 823 q 385 868 335 858 q 482 881 434 878 q 569 884 530 884 q 802 853 688 884 q 1010 758 916 821 l 901 680 q 745 738 829 718 q 569 758 661 758 q 517 757 549 758 q 450 752 485 756 q 380 741 415 749 q 316 720 345 734 q 270 684 288 706 q 252 631 252 662 q 370 522 252 534 q 495 511 430 515 q 631 502 560 506 q 767 485 703 498 q 892 450 832 471 q 1010 254 1010 406 q 987 157 1010 197 q 929 89 965 117 q 847 43 893 60 q 752 16 802 26 q 655 3 703 6 q 569 0 608 0 q 326 33 439 0 q 126 126 212 66 l 236 204 q 393 145 307 165 q 569 126 479 126 q 619 126 588 126 q 685 131 650 127 q 755 142 720 134 q 819 164 791 150 q 866 200 848 178 q 884 254 884 222 q 766 362 884 350 q 641 373 706 368 q 505 382 576 378 q 244 434 363 390 q 126 631 126 477 z "},"š":{"ha":1010,"x_min":126,"x_max":884,"o":"m 732 909 l 576 722 l 458 722 l 313 909 l 448 909 l 522 845 l 597 909 l 732 909 m 505 631 q 884 569 712 631 l 837 459 q 505 505 692 505 q 448 504 484 505 q 357 500 411 502 q 252 435 252 496 q 316 379 252 379 l 695 379 q 768 365 733 379 q 828 326 802 350 q 869 268 854 301 q 884 198 884 235 q 746 26 884 52 q 505 0 608 0 q 126 62 298 0 l 174 173 q 505 126 317 126 q 562 127 526 126 q 652 130 598 127 q 758 197 758 133 q 695 253 758 253 l 316 253 q 242 267 277 253 q 182 306 208 281 q 141 363 156 330 q 126 434 126 396 q 263 606 126 580 q 505 631 400 631 z "},"Ž":{"ha":1137,"x_min":126,"x_max":1010,"o":"m 782 1135 l 626 948 l 508 948 l 363 1135 l 497 1135 l 572 1072 l 647 1135 l 782 1135 m 126 0 l 126 126 l 823 758 l 126 758 l 126 884 l 1010 884 l 1010 758 l 313 126 l 1010 126 l 1010 0 l 126 0 z "},"ž":{"ha":1010,"x_min":126,"x_max":884,"o":"m 724 931 l 568 744 l 450 744 l 304 931 l 439 931 l 514 868 l 589 931 l 724 931 m 126 631 l 884 631 l 884 505 l 345 126 l 884 126 l 884 0 l 126 0 l 126 126 l 665 505 l 126 505 l 126 631 z "},"¸":{"ha":378,"x_min":125,"x_max":251,"o":"m 125 8 l 251 8 l 251 -118 l 125 -243 l 125 8 z "},"¤":{"ha":1010,"x_min":115,"x_max":897,"o":"m 799 754 l 892 669 l 827 598 q 857 552 844 576 q 887 430 887 495 q 857 307 887 365 q 827 262 844 283 l 897 198 l 812 105 l 732 176 q 655 140 697 155 q 509 115 586 115 q 362 138 431 115 q 277 180 316 155 l 208 105 l 115 190 l 185 266 q 159 307 171 285 q 130 430 130 364 q 159 553 130 496 q 186 596 172 576 l 125 652 l 212 747 l 281 682 q 362 721 318 705 q 508 746 431 746 q 655 721 586 746 q 733 682 697 705 l 799 754 m 509 620 q 411 605 456 620 q 331 565 365 590 q 276 505 296 539 q 256 430 256 470 q 276 356 256 390 q 331 296 296 321 q 411 256 365 271 q 509 241 456 241 q 605 256 559 241 q 686 296 651 271 q 741 356 720 322 q 761 430 761 391 q 741 504 761 469 q 686 564 720 538 q 605 605 651 590 q 509 620 559 620 z "},"›":{"ha":684,"x_min":126,"x_max":591,"o":"m 298 0 l 126 0 l 419 316 l 126 631 l 298 631 l 591 316 l 298 0 z "},"‹":{"ha":684,"x_min":126,"x_max":591,"o":"m 419 631 l 591 631 l 298 316 l 591 0 l 419 0 l 126 316 l 419 631 z "},"«":{"ha":1030,"x_min":126,"x_max":924,"o":"m 751 631 l 924 631 l 631 316 l 924 0 l 751 0 l 458 316 l 751 631 m 419 631 l 591 631 l 298 316 l 591 0 l 419 0 l 126 316 l 419 631 z "},"»":{"ha":1030,"x_min":126,"x_max":924,"o":"m 298 0 l 126 0 l 419 316 l 126 631 l 298 631 l 591 316 l 298 0 m 631 0 l 458 0 l 751 316 l 458 631 l 631 631 l 924 316 l 631 0 z "},"™":{"ha":1544,"x_min":126,"x_max":1411,"o":"m 126 884 l 626 884 l 626 812 l 411 812 l 411 385 l 340 385 l 340 812 l 126 812 l 126 884 m 768 884 l 853 884 l 1090 518 l 1326 884 l 1411 884 l 1411 385 l 1339 385 l 1339 773 l 1135 456 l 1044 456 l 840 773 l 840 385 l 768 385 l 768 884 z "}," ":{"ha":722,"x_min":0,"x_max":0,"o":"z "},"¯":{"ha":884,"x_min":122,"x_max":739,"o":"m 122 698 l 122 824 l 739 824 l 739 698 l 122 698 z "}}}
